<?xml version="1.0" standalone="no"?>
<!DOCTYPE svg PUBLIC "-//W3C//DTD SVG 20010904//EN"
 "http://www.w3.org/TR/2001/REC-SVG-20010904/DTD/svg10.dtd">
<svg version="1.0" xmlns="http://www.w3.org/2000/svg"
 width="170" height="45" viewBox="0 0 44.979165 11.906249"
 preserveAspectRatio="xMidYMid meet">
<metadata>
Created by potrace 1.10, written by Peter Selinger 2001-2011
</metadata>
<g transform="translate(0.000000,173.000000) scale(0.100000,-0.100000)"
fill="#FFFFFF" stroke="none">
<path d="M2683 1583 c-60 -78 -93 -132 -167 -283 -89 -178 -117 -233 -125
-240 -4 -3 -19 -22 -34 -43 -39 -52 -67 -81 -99 -101 -62 -40 -63 16 -3 154
25 57 45 104 45 106 0 2 -6 4 -13 4 -7 0 -29 -20 -50 -44 -36 -44 -47 -63 -27
-51 5 3 3 -10 -6 -30 -33 -80 -26 -157 15 -168 24 -6 64 22 112 78 48 57 59
67 59 59 0 -4 -7 -43 -16 -87 -35 -173 34 -217 145 -91 22 26 41 51 41 56 0 5
7 16 15 24 8 9 15 20 15 26 0 6 -17 -11 -37 -38 -63 -83 -123 -131 -145 -118
-19 12 -1 124 35 225 42 115 144 338 199 434 22 39 51 89 64 112 31 54 15 64
-23 16z m-250 -523 c-3 -12 -8 -19 -11 -16 -5 6 5 36 12 36 2 0 2 -9 -1 -20z"/>
<path d="M925 1572 c-5 -4 -27 -32 -48 -63 -42 -63 -191 -211 -282 -280 -70
-54 -195 -132 -201 -126 -3 2 2 17 10 33 9 16 41 81 72 144 31 63 76 148 101
188 41 69 50 109 20 100 -19 -6 -82 -103 -141 -218 -137 -267 -261 -620 -217
-620 20 0 46 60 95 220 14 47 30 91 35 98 5 9 21 -8 51 -59 62 -104 180 -217
282 -270 74 -38 92 -43 169 -47 81 -4 91 -2 138 23 52 29 93 65 73 65 -6 0
-31 -13 -55 -30 -145 -97 -384 -7 -547 207 -38 50 -60 83 -60 91 0 5 -7 15
-15 22 -24 20 -18 28 38 56 106 54 260 175 366 287 49 53 119 147 124 169 6
20 6 20 -8 10z m-357 -82 c-7 -10 -14 -17 -17 -15 -4 4 18 35 25 35 2 0 -1 -9
-8 -20z m-48 -80 c-6 -11 -13 -20 -16 -20 -2 0 0 9 6 20 6 11 13 20 16 20 2 0
0 -9 -6 -20z m-163 -342 c-3 -8 -6 -5 -6 6 -1 11 2 17 5 13 3 -3 4 -12 1 -19z"/>
<path d="M932 1388 c-7 -7 -12 -18 -12 -25 0 -18 29 -16 37 3 8 21 -10 37 -25
22z"/>
<path d="M1039 1248 c-17 -24 -40 -61 -51 -83 -12 -22 -31 -54 -44 -71 -13
-17 -24 -37 -23 -45 0 -8 4 -6 9 6 5 13 6 0 3 -32 -9 -81 4 -72 91 67 8 13 7
13 -7 1 -26 -21 -21 -5 33 94 27 51 46 95 43 99 -13 12 -24 5 -54 -36z"/>
<path d="M1474 1261 c-43 -19 -99 -82 -129 -141 -36 -72 -136 -137 -150 -97
-3 6 1 41 9 77 16 77 3 127 -30 122 -28 -5 -75 -40 -109 -81 -26 -31 -21 -28
34 17 81 67 95 61 75 -34 -28 -130 21 -172 110 -94 36 32 46 36 46 19 0 -7 8
-18 17 -25 30 -21 86 9 180 97 23 21 44 36 47 31 2 -4 -1 -32 -8 -62 -12 -53
-14 -56 -96 -111 -76 -51 -134 -105 -196 -180 -12 -14 -33 -52 -49 -84 -31
-66 -31 -131 0 -165 25 -28 54 -25 110 12 89 59 197 236 241 397 13 46 25 85
26 86 3 3 105 72 121 82 5 3 4 -4 -2 -15 -17 -32 -13 -70 10 -93 20 -20 21
-20 49 -2 15 10 43 32 62 48 53 49 55 47 31 -23 -37 -109 -28 -172 25 -172 15
0 37 8 48 18 32 25 104 111 104 124 0 6 -10 -2 -22 -18 -55 -70 -126 -119
-145 -100 -13 13 18 126 62 225 25 56 45 106 45 111 0 22 -21 7 -51 -37 -51
-74 -147 -163 -175 -163 -26 0 -14 58 28 139 30 58 39 84 31 92 -7 7 -23 -6
-54 -47 -39 -51 -141 -142 -161 -144 -4 0 -7 21 -6 46 0 25 -4 50 -10 56 -12
12 -15 10 -93 -60 -42 -38 -101 -72 -124 -72 -21 0 -19 38 4 75 26 43 100 115
128 126 34 13 49 11 67 -7 14 -14 16 -14 16 0 0 17 -37 46 -60 46 -8 0 -33 -9
-56 -19z m38 -352 c-68 -195 -163 -339 -234 -354 -44 -10 -60 9 -57 69 3 63
44 144 108 213 50 55 204 175 209 163 2 -4 -10 -45 -26 -91z"/>
<path d="M2192 1239 c-13 -5 -32 -19 -43 -32 -24 -29 -91 -168 -84 -175 3 -3
5 -1 5 5 0 5 7 10 15 10 8 0 15 -5 15 -10 0 -15 50 2 73 25 22 21 22 21 -14
-1 -31 -18 -38 -19 -42 -7 -9 22 50 133 83 156 34 25 46 25 59 3 9 -15 10 -15
11 -2 0 34 -33 47 -78 28z"/>
<path d="M834 1223 c-30 -30 -87 -163 -92 -213 -4 -43 -2 -50 21 -64 23 -15
26 -15 53 1 16 9 45 35 64 57 l35 41 -50 -41 c-61 -50 -84 -59 -92 -38 -8 21
32 132 75 212 26 47 30 62 19 62 -9 0 -23 -8 -33 -17z"/>
<path d="M2678 1134 c-25 -49 -22 -67 3 -20 11 21 19 42 17 46 -2 4 -11 -7
-20 -26z"/>
<path d="M2606 995 c-9 -26 -7 -32 5 -12 6 10 9 21 6 23 -2 3 -7 -2 -11 -11z"/>
<path d="M1254 396 c-43 -19 -64 -53 -64 -101 1 -82 84 -130 159 -90 24 12 41
33 41 51 0 10 -24 2 -47 -16 -34 -27 -69 -25 -98 5 -33 32 -33 78 1 112 20 20
31 24 57 19 18 -3 39 -15 48 -25 11 -13 20 -16 30 -10 11 7 9 13 -11 33 -31
32 -76 40 -116 22z"/>
<path d="M2078 394 c-31 -16 -58 -61 -58 -96 0 -35 34 -83 69 -97 65 -28 136
12 147 81 15 87 -79 153 -158 112z m86 -25 c74 -34 46 -149 -36 -149 -25 0
-67 29 -69 48 0 4 -2 17 -5 30 -3 16 5 32 25 53 32 32 47 35 85 18z"/>
<path d="M480 296 l0 -103 75 0 c54 1 75 5 75 14 0 9 -17 13 -59 13 l-59 0 -4
38 -3 37 59 -3 c45 -3 57 -1 54 10 -3 8 -22 13 -54 13 -48 0 -49 1 -52 32 l-3
31 60 -3 c47 -2 61 1 61 11 0 11 -18 14 -75 14 l-75 0 0 -104z"/>
<path d="M700 296 l0 -104 58 2 c84 3 114 24 126 90 6 34 -6 68 -35 95 -18 17
-36 21 -86 21 l-63 0 0 -104z m131 58 c12 -11 19 -31 19 -55 0 -46 -36 -79
-86 -79 l-34 0 0 80 0 79 41 -4 c23 -3 50 -12 60 -21z"/>
<path d="M950 320 c0 -73 3 -83 25 -105 33 -34 87 -34 120 0 28 27 27 23 29
118 2 59 0 67 -16 67 -16 0 -18 -9 -18 -74 0 -82 -13 -106 -55 -106 -42 0 -55
24 -55 106 0 59 -3 74 -15 74 -12 0 -15 -16 -15 -80z"/>
<path d="M1484 303 c-21 -54 -40 -101 -42 -105 -2 -5 3 -8 12 -8 8 0 22 12 29
27 13 23 21 27 62 28 41 0 48 -3 61 -27 8 -16 22 -28 30 -28 9 0 14 3 12 8 -1
4 -21 51 -42 105 -54 133 -68 133 -122 0z m95 -20 c1 -8 -13 -13 -38 -13 l-39
0 21 51 22 51 17 -39 c9 -21 17 -44 17 -50z"/>
<path d="M1690 386 c0 -11 10 -14 35 -12 l35 4 0 -95 c0 -85 2 -94 18 -91 15
3 17 15 16 95 l-1 93 39 -4 c28 -3 38 0 38 10 0 11 -20 14 -90 14 -72 0 -90
-3 -90 -14z"/>
<path d="M1925 298 c0 -90 2 -103 18 -106 15 -3 17 7 17 102 0 95 -2 106 -18
106 -15 0 -17 -11 -17 -102z"/>
<path d="M2305 298 c0 -91 2 -103 18 -106 17 -3 18 3 15 72 -2 42 -1 76 2 76
3 0 30 -34 59 -75 30 -41 61 -75 68 -75 10 0 13 25 13 105 0 90 -2 105 -16
105 -14 0 -16 -12 -12 -90 2 -49 2 -87 -1 -84 -3 2 -6 11 -7 19 -4 24 -108
154 -124 155 -13 0 -16 -17 -15 -102z"/>
</g>
</svg>
