<svg width="320.000000pt" height="278.000000pt" viewBox="0 0 320.000000 278.000000" xmlns="http://www.w3.org/2000/svg">
  <g transform="translate(0.000000,278.000000) scale(0.100000,-0.100000)" fill="#ffffff" stroke="none">
    <path d="M0 1390 l0 -1390 1600 0 1600 0 0 1390 0 1390 -1600 0 -1600 0 0
-1390z m1595 1091 c33 -12 84 -38 114 -57 l53 -36 -8 -8 c-5 -4 -27 -13 -49
-20 -22 -7 -68 -27 -103 -43 l-63 -30 -39 -45 -40 -45 -15 -50 c-8 -28 -15
-75 -15 -104 l0 -54 -53 -24 -53 -25 -49 -2 -48 -3 -4 12 c-2 6 10 19 26 29
l31 18 0 18 c0 10 -6 18 -13 18 -26 0 -107 60 -136 100 l-30 41 -12 54 -12 54
17 45 c10 25 26 56 37 70 25 32 96 74 164 99 l50 18 95 -5 95 -4 60 -21z m396
-131 c72 -14 166 -59 238 -114 l59 -46 22 -46 23 -46 -6 -53 c-3 -29 -15 -75
-27 -104 l-23 -51 -35 -32 c-41 -36 -120 -74 -174 -83 l-38 -7 0 -16 c0 -21
40 -62 61 -62 9 0 22 -7 29 -15 l12 -14 -29 -6 c-15 -3 -36 -8 -46 -10 -28 -6
-109 22 -147 50 l-34 25 -47 0 -48 0 -91 47 -92 47 -44 43 c-25 24 -56 67 -69
96 l-25 52 0 40 c0 55 30 115 87 176 l48 51 55 28 c48 24 77 33 185 54 39 7
103 6 156 -4z m949 -824 c0 -3 -5 -8 -12 -12 l-11 -7 7 11 c7 12 16 16 16 8z
m-44 -68 c-15 -24 -60 -110 -100 -193 -115 -234 -175 -399 -177 -490 l-1 -40
-10 29 -11 29 18 84 c10 46 15 86 11 90 -3 3 -1 12 4 18 6 7 51 93 100 191 49
99 98 193 108 209 30 51 74 115 79 115 3 0 -7 -19 -21 -42z m-2129 -80 c-60
-106 -143 -274 -153 -313 l-6 -25 11 0 c5 0 -2 -13 -17 -28 l-28 -29 -28 -89
c-15 -49 -40 -118 -54 -154 l-27 -65 -3 21 c-4 29 68 242 130 384 83 192 216
430 226 402 2 -6 -21 -53 -51 -104z m403 -68 c0 -5 -5 -10 -11 -10 -5 0 -7 5
-4 10 3 6 8 10 11 10 2 0 4 -4 4 -10z m95 -168 c-19 -34 -38 -76 -42 -94 -5
-30 -49 -118 -59 -118 -2 0 -2 17 -1 38 2 21 17 60 32 88 45 78 97 155 102
151 2 -3 -12 -32 -32 -65z m493 49 c-49 -10 -78 -31 -124 -88 -22 -26 -45 -54
-51 -61 -7 -7 -13 -25 -13 -40 l0 -27 -9 14 -9 15 20 39 c22 44 69 96 120 133
l32 24 35 -1 36 -1 -37 -7z m263 -58 c-37 -62 -54 -117 -49 -155 l5 -31 -14
19 -13 18 4 44 3 43 39 54 c22 30 42 55 46 55 4 0 -5 -21 -21 -47z m-976 -40
c-19 -38 -44 -97 -54 -133 l-19 -65 -1 38 -1 38 35 77 c31 66 60 112 72 112 2
0 -13 -30 -32 -67z m1358 45 c-28 -30 -63 -102 -63 -128 0 -11 -5 -20 -11 -20
l-10 0 7 23 c15 49 32 84 58 115 15 17 30 32 34 32 3 0 -4 -10 -15 -22z m-241
-80 c-19 -46 -43 -114 -53 -153 l-18 -70 0 30 c-1 17 6 52 14 79 8 27 15 60
15 74 l0 25 37 48 c20 27 38 49 39 49 1 0 -14 -37 -34 -82z m-747 -26 l-7 -76
-8 15 -8 14 11 73 c6 40 13 68 15 62 2 -6 1 -46 -3 -88z m1073 11 c-17 -38
-39 -93 -49 -123 l-18 -55 0 25 c0 14 6 43 14 65 8 22 15 48 15 58 0 10 14 36
32 58 17 21 33 39 34 39 2 0 -11 -30 -28 -67z m-667 -23 c2 -56 -45 -201 -97
-299 -26 -51 -53 -96 -59 -101 -5 -4 7 28 28 72 45 93 90 226 83 244 -3 7 1
18 9 24 7 6 16 31 20 56 3 25 8 44 10 42 2 -2 5 -19 6 -38z m-688 -407 c-13
-2 -33 -2 -45 0 -13 2 -3 4 22 4 25 0 35 -2 23 -4z m517 -17 c0 -3 -5 -8 -12
-12 l-11 -7 7 11 c7 12 16 16 16 8z m-407 -379 l32 -4 -37 -1 -38 -2 2 63 2
62 3 -57 4 -57 32 -4z m124 46 c-2 -16 -4 -5 -4 22 0 28 2 40 4 28 2 -13 2
-35 0 -50z m90 0 c-2 -16 -4 -5 -4 22 0 28 2 40 4 28 2 -13 2 -35 0 -50z m303
57 c0 -5 -4 -10 -10 -10 -5 0 -10 5 -10 10 0 6 5 10 10 10 6 0 10 -4 10 -10z
m147 -82 c-2 -18 -4 -4 -4 32 0 36 2 50 4 33 2 -18 2 -48 0 -65z m366 54 c-6
-4 -13 -25 -16 -47 l-4 -40 -1 65 -2 64 18 -17 17 -18 -12 -7z m77 -18 l0 -56
-16 13 -16 13 11 4 11 4 0 39 c0 21 2 39 5 39 3 0 5 -25 5 -56z m-273 -16 c-3
-7 -5 -2 -5 12 0 14 2 19 5 13 2 -7 2 -19 0 -25z m-770 5 c-4 -3 -7 0 -7 7 0
7 3 10 7 7 3 -4 3 -10 0 -14z m890 0 c-4 -3 -7 0 -7 7 0 7 3 10 7 7 3 -4 3
-10 0 -14z m-407 -13 l0 -10 -42 1 -43 2 40 7 c22 4 41 8 43 9 1 0 2 -3 2 -9z
m-667 -37 c-13 -2 -33 -2 -45 0 -13 2 -3 4 22 4 25 0 35 -2 23 -4z" />
    <path d="M1301 2464 c-66 -18 -110 -44 -150 -90 l-31 -35 0 -65 0 -65 14 -32
c20 -48 75 -94 142 -120 l59 -24 -3 -26 -3 -27 14 0 c7 0 20 6 29 13 l16 12
11 68 c5 38 20 89 32 115 13 26 44 68 70 93 l47 46 71 29 c39 16 71 35 71 41
0 33 -175 84 -282 82 -29 0 -77 -7 -107 -15z" />
    <path d="M1730 2304 c-103 -28 -202 -114 -231 -201 l-11 -36 5 -50 6 -50 26
-39 c29 -44 129 -121 194 -150 24 -11 71 -22 105 -25 l61 -6 20 -18 c21 -18
86 -49 105 -49 14 0 12 23 -5 56 -8 16 -15 34 -15 41 l0 12 58 11 c118 24 188
70 223 145 l19 40 0 79 0 80 -51 49 -51 49 -76 36 -77 37 -125 2 -125 2 -55
-15z m311 -69 c16 -9 27 -20 24 -25 -3 -5 -11 -7 -18 -5 -7 2 -25 9 -40 15
l-28 10 6 10 c9 14 21 13 56 -5z m161 -91 c9 -11 21 -38 28 -62 l11 -43 -25
-54 c-14 -30 -30 -55 -35 -55 -15 0 -13 22 4 44 l15 20 0 47 c0 26 -4 58 -9
71 -5 13 -25 32 -45 43 -20 11 -36 25 -36 32 l0 13 38 -19 c20 -10 44 -27 54
-37z" />
  </g>
  <g transform="translate(0.000000,278.000000) scale(0.100000,-0.100000)" fill="#0575e6" stroke="none">
    <path d="M1295 2507 c-52 -18 -102 -43 -144 -75 l-33 -25 -24 -51 c-13 -28
-24 -65 -24 -82 0 -17 7 -54 16 -83 l16 -53 47 -48 c26 -26 64 -53 84 -61 20
-7 37 -15 37 -19 0 -3 -16 -15 -35 -28 -19 -12 -35 -26 -35 -31 0 -5 7 -14 15
-21 l15 -12 53 6 c29 4 76 18 105 31 l52 24 0 54 c0 29 7 76 15 104 l15 50 40
45 39 45 67 32 c37 17 68 30 70 28 2 -2 -19 -14 -46 -27 l-51 -24 -50 -53
c-27 -29 -59 -72 -69 -95 l-20 -43 0 -50 0 -50 25 -52 c13 -29 44 -72 69 -96
l44 -43 92 -47 91 -47 48 0 47 0 35 -25 c19 -14 57 -32 84 -41 l51 -14 47 9
c27 5 51 12 55 15 10 11 -13 41 -34 44 -20 4 -64 40 -64 53 0 4 17 10 38 14
54 9 133 47 174 83 l35 32 23 52 c13 29 25 81 28 115 l5 61 -23 46 -22 46 -59
46 c-32 24 -88 59 -124 75 l-65 31 -70 11 -70 11 -83 -12 c-45 -6 -93 -14
-107 -17 l-25 -5 35 13 c19 8 36 21 38 30 l3 16 -53 35 c-29 20 -80 45 -113
57 l-60 21 -105 4 -105 4 -40 -13z m232 -53 c43 -9 95 -25 117 -36 l40 -20
-73 -31 -74 -31 -46 -45 c-26 -26 -57 -67 -70 -93 -12 -26 -27 -79 -33 -118
l-11 -71 -21 -11 -21 -11 14 16 13 17 -12 14 c-6 8 -34 22 -62 32 l-51 17 -40
36 c-22 20 -46 50 -54 68 -7 18 -13 57 -13 87 l0 55 31 35 c40 46 84 72 150
90 71 19 124 19 216 0z m575 -186 l76 -36 51 -49 51 -49 0 -70 0 -69 -19 -40
c-35 -75 -105 -121 -223 -145 l-58 -11 0 -22 c0 -12 7 -35 15 -51 8 -15 15
-30 15 -32 0 -9 -76 28 -96 46 l-20 20 -40 0 c-22 0 -63 7 -90 15 -64 19 -186
104 -224 156 l-29 41 -7 43 -6 44 11 34 c29 87 128 173 231 201 l55 15 115 -2
115 -2 77 -37z" />
    <path d="M1973 2244 c-3 -8 -2 -19 3 -23 15 -14 83 -33 94 -26 19 12 10 34
-20 50 -37 19 -69 19 -77 -1z" />
    <path d="M2096 2194 c-3 -9 -6 -17 -6 -19 0 -2 20 -15 44 -29 l44 -25 6 -23
c3 -13 6 -39 6 -58 l0 -35 -19 -29 c-22 -33 -18 -56 11 -56 l19 0 26 56 26 57
-12 52 -12 52 -22 20 c-23 22 -80 53 -95 53 -6 0 -13 -7 -16 -16z" />
    <path d="M1050 270 l0 -70 50 0 50 0 0 15 0 15 -40 0 -40 0 0 15 0 15 35 0
c19 0 35 5 35 10 0 6 -16 10 -35 10 l-35 0 0 20 0 20 40 0 40 0 0 10 0 10 -50
0 -50 0 0 -70z" />
    <path d="M1190 270 l0 -70 44 0 45 0 20 26 c12 15 21 34 21 44 0 10 -9 29 -21
44 l-20 26 -45 0 -44 0 0 -70z m92 27 c20 -32 0 -67 -39 -67 l-23 0 0 46 0 46
27 -7 c15 -3 31 -12 35 -18z" />
    <path d="M1350 287 l0 -54 18 -16 c23 -21 66 -22 86 -1 l16 15 0 55 0 54 -15
0 -15 0 0 -54 0 -54 -15 -6 c-8 -3 -22 -3 -30 0 l-15 6 0 54 0 54 -15 0 -15 0
0 -53z" />
    <path d="M1527 322 c-9 -10 -17 -33 -17 -50 l0 -32 20 -20 20 -20 31 0 c38 0
69 16 69 35 0 8 -2 15 -3 15 -2 0 -18 -7 -35 -16 l-31 -15 -19 10 c-11 6 -23
18 -26 27 l-6 17 15 23 15 24 22 0 c12 0 30 -7 40 -17 22 -19 37 -9 22 15
l-11 17 -45 3 -44 3 -17 -19z" />
    <path d="M1709 273 l-27 -68 11 -4 c6 -2 16 4 22 13 l12 16 32 0 31 0 0 -15
c0 -8 7 -15 15 -15 8 0 15 2 15 5 0 3 -12 34 -26 70 l-26 65 -17 0 -16 0 -26
-67z m61 -5 c0 -5 -9 -8 -20 -8 l-21 0 12 21 11 22 9 -14 c5 -8 9 -17 9 -21z" />
    <path d="M1840 330 c0 -5 11 -10 25 -10 l25 0 0 -60 0 -60 15 0 15 0 0 60 0
60 25 0 c14 0 25 5 25 10 l0 10 -65 0 -65 0 0 -10z" />
    <path d="M2000 270 l0 -70 10 0 10 0 0 70 0 70 -10 0 -10 0 0 -70z" />
    <path d="M2080 320 l-20 -20 0 -30 0 -30 20 -20 20 -20 34 0 35 0 20 26 c12
15 21 34 21 44 0 10 -9 29 -21 44 l-20 26 -35 0 -34 0 -20 -20z m84 -16 c22
-21 20 -47 -4 -69 l-20 -18 -25 11 -25 12 0 28 c0 15 5 33 12 40 17 17 44 15
62 -4z" />
    <path d="M2240 270 l0 -70 15 0 15 0 0 43 1 42 37 -43 c20 -23 40 -42 45 -42
4 0 7 32 7 70 l0 70 -15 0 -15 0 0 -42 0 -42 -31 42 c-17 23 -37 42 -45 42
l-14 0 0 -70z" />
  </g>
  <g transform="translate(0.000000,278.000000) scale(0.100000,-0.100000)" fill="#264e85" stroke="none">
    <path d="M2888 1488 c-61 -90 -68 -103 -172 -313 l-94 -190 -17 -92 -17 -92 6
-35 7 -35 21 -15 21 -15 30 16 c41 21 72 51 63 60 -4 5 -13 1 -19 -8 -17 -22
-56 -41 -73 -35 l-14 5 0 34 c0 78 62 249 170 472 37 77 87 171 110 208 23 38
44 75 47 83 l5 14 -16 0 -15 0 -43 -62z" />
    <path d="M767 1447 c-90 -135 -207 -388 -277 -596 l-41 -124 3 -31 c2 -17 8
-30 13 -30 12 2 57 105 80 184 9 30 23 74 32 98 l16 42 14 -11 c7 -7 17 -9 20
-5 4 4 1 11 -7 17 l-15 9 25 20 c14 11 28 20 33 20 4 0 7 5 7 10 l0 10 -25 -6
-25 -6 9 24 c21 56 97 206 153 304 33 57 57 108 53 114 -13 21 -34 8 -68 -43z" />
    <path d="M1115 1469 c-4 -6 -5 -13 -2 -16 7 -7 27 6 27 18 0 12 -17 12 -25 -2z" />
    <path d="M1077 1418 c-19 -29 -150 -164 -201 -207 -40 -34 -43 -55 -4 -28 13
8 61 52 108 98 108 104 150 159 121 159 -5 0 -15 -10 -24 -22z" />
    <path d="M1144 1315 c-3 -8 -3 -19 0 -24 10 -16 36 -1 36 20 l0 19 -15 0 c-9
0 -18 -7 -21 -15z" />
    <path d="M1257 1183 c-14 -21 -43 -68 -64 -104 l-40 -66 -2 -56 c-1 -32 2 -57
6 -57 13 0 61 86 74 132 6 24 25 68 43 98 18 30 35 63 39 73 l6 17 -18 0 -18
0 -26 -37z" />
    <path d="M1723 1209 l-32 -9 -58 -58 c-32 -31 -67 -76 -77 -99 l-19 -42 17
-26 c9 -14 23 -25 32 -25 23 0 84 28 84 39 l0 10 -35 -15 c-74 -31 -74 13 1
101 59 69 97 95 139 95 l25 0 0 15 c0 8 -4 15 -9 15 -5 0 -15 2 -23 4 -7 2
-27 0 -45 -5z" />
    <path d="M2035 1192 c-6 -4 -26 -27 -44 -52 -19 -25 -41 -50 -49 -57 l-14 -12
8 -13 c4 -7 7 -27 5 -45 -3 -39 14 -73 38 -73 27 0 33 11 14 26 l-18 12 13 48
c7 27 26 70 43 97 37 60 39 94 4 69z" />
    <path d="M2414 1171 c-17 -10 -41 -32 -52 -48 -19 -27 -65 -134 -59 -139 1 -1
14 -5 28 -9 l27 -7 -5 25 -5 24 22 44 c26 51 68 99 87 99 7 0 13 7 13 15 0 20
-19 19 -56 -4z" />
    <path d="M1052 1157 c-12 -12 -37 -57 -57 -99 l-35 -77 0 -43 c0 -47 13 -68
42 -68 22 0 23 9 2 25 l-17 12 22 67 c12 37 35 91 51 120 43 76 39 113 -8 63z" />
    <path d="M2197 1165 c-55 -66 -78 -101 -83 -124 -2 -14 -11 -52 -19 -83 -8
-32 -15 -73 -15 -91 l0 -34 19 -17 20 -18 20 7 c26 8 28 25 2 18 l-19 -5 -6
20 c-10 29 11 104 61 219 25 56 43 108 41 115 l-4 12 -17 -19z" />
    <path d="M809 1157 c-8 -7 -26 -21 -41 -31 -16 -10 -28 -23 -28 -28 0 -6 12
-2 27 8 39 25 67 53 61 59 -3 3 -12 0 -19 -8z" />
    <path d="M1400 1120 c0 -16 -5 -52 -11 -80 l-11 -51 12 -30 12 -29 19 0 19 0
-11 18 -11 18 9 71 c9 71 3 113 -17 113 -5 0 -10 -13 -10 -30z" />
    <path d="M2473 1082 c-16 -20 -33 -51 -36 -67 -3 -17 -11 -51 -18 -76 -14 -56
-6 -94 22 -110 l22 -11 23 13 c13 7 24 16 24 21 0 5 -9 4 -21 -2 -11 -7 -28
-9 -36 -6 l-16 6 6 35 c3 19 24 75 46 126 23 50 41 95 41 100 0 21 -29 6 -57
-29z" />
    <path d="M1801 1094 c4 -30 -12 -108 -26 -124 -7 -8 -13 -27 -13 -41 1 -35
-34 -134 -82 -234 l-39 -81 -50 -54 c-28 -30 -51 -58 -51 -62 0 -19 23 -3 82
55 l63 62 49 94 c27 51 59 131 72 178 13 47 29 92 35 100 l13 15 -11 6 c-7 4
-13 27 -15 51 l-3 44 -13 5 -14 4 3 -18z" />
    <path d="M690 1080 c-8 -5 -12 -12 -9 -15 8 -8 39 5 39 16 0 11 -11 11 -30 -1z" />
    <path d="M2040 985 l-13 -15 17 6 c9 3 16 10 16 15 0 13 -6 11 -20 -6z" />
    <path d="M630 942 c0 -17 71 -111 126 -166 55 -54 137 -116 156 -116 18 0 6
17 -23 34 -50 30 -175 153 -209 207 -29 44 -50 62 -50 41z" />
    <path d="M1650 880 c-8 -5 -11 -12 -7 -16 4 -4 13 -2 19 4 15 15 7 24 -12 12z" />
    <path d="M2180 845 l-12 -15 10 0 c12 0 26 19 19 26 -2 2 -10 -2 -17 -11z" />
    <path d="M1466 695 c-18 -27 -21 -45 -8 -45 8 0 16 14 40 63 2 4 -1 7 -6 7 -5
0 -17 -11 -26 -25z" />
    <path d="M1246 663 l-38 -28 -72 -3 c-64 -3 -103 2 -173 23 l-23 7 0 -10 c0
-16 124 -52 174 -52 22 1 58 7 79 14 60 22 131 76 99 76 -4 0 -25 -12 -46 -27z" />
    <path d="M1427 613 c-11 -10 -8 -53 3 -53 6 0 10 6 10 14 0 8 3 21 6 30 6 16
-7 22 -19 9z" />
    <path d="M1426 525 c4 -8 8 -15 10 -15 2 0 4 7 4 15 0 8 -4 15 -10 15 -5 0 -7
-7 -4 -15z" />
    <path d="M1460 480 c0 -5 14 -10 30 -10 17 0 30 5 30 10 0 6 -13 10 -30 10
-16 0 -30 -4 -30 -10z" />
  </g>
  <g transform="translate(0.000000,278.000000) scale(0.100000,-0.100000)" fill="#8397b8" stroke="none">
    <path d="M2910 1518 l-22 -33 24 28 c29 33 43 35 28 5 l-11 -23 15 19 c20 25
20 36 2 36 -8 0 -24 -15 -36 -32z" />
    <path d="M1112 1466 l-32 -44 16 2 c18 3 72 86 57 86 -5 0 -24 -20 -41 -44z" />
    <path d="M794 1488 l-7 -11 11 7 c7 4 12 9 12 12 0 8 -9 4 -16 -8z" />
    <path d="M823 1472 l-1 -26 10 18 10 18 -8 8 -9 9 -2 -27z" />
    <path d="M2874 1468 l-7 -11 11 7 c7 4 12 9 12 12 0 8 -9 4 -16 -8z" />
    <path d="M769 1453 l-14 -18 18 14 c9 7 17 15 17 17 0 8 -8 3 -21 -13z" />
    <path d="M2904 1458 l-7 -11 11 7 c7 4 12 9 12 12 0 8 -9 4 -16 -8z" />
    <path d="M804 1428 l-7 -11 11 7 c12 7 16 16 8 16 -3 0 -8 -5 -12 -12z" />
    <path d="M2847 1433 c-4 -3 -7 -11 -7 -17 l0 -10 12 12 c6 6 9 14 7 17 -3 3
-9 2 -12 -2z" />
    <path d="M2874 1408 l-7 -11 11 7 c7 4 12 9 12 12 0 8 -9 4 -16 -8z" />
    <path d="M734 1398 l-7 -11 11 7 c12 7 16 16 8 16 -3 0 -8 -5 -12 -12z" />
    <path d="M1085 1400 c-4 -6 -10 -8 -14 -6 -11 7 -111 -100 -111 -118 l0 -15
-15 5 -15 6 0 -18 c0 -9 -3 -14 -7 -11 -9 9 -43 -23 -43 -40 l0 -14 -12 7 -11
7 7 -11 7 -12 55 47 c30 26 54 53 54 60 l0 14 11 -6 10 -7 6 21 c3 12 11 21
18 21 7 0 28 18 45 40 17 22 29 40 26 40 -2 0 -8 -5 -11 -10z m-27 -30 c-7
-11 -17 -20 -22 -20 -5 0 -1 9 9 20 10 11 20 20 22 20 2 0 -2 -9 -9 -20z
m-148 -144 c0 -3 -5 -8 -12 -12 l-11 -7 7 11 c7 12 16 16 16 8z" />
    <path d="M770 1370 c-6 -11 -8 -20 -6 -20 3 0 10 9 16 20 6 11 8 20 6 20 -3 0
-10 -9 -16 -20z" />
    <path d="M2856 1373 l-7 -18 12 12 c7 7 10 15 7 18 -3 3 -9 -2 -12 -12z" />
    <path d="M2800 1350 c-6 -11 -8 -20 -6 -20 3 0 10 9 16 20 6 11 8 20 6 20 -3
0 -10 -9 -16 -20z" />
    <path d="M704 1348 l-7 -11 11 7 c12 7 16 16 8 16 -3 0 -8 -5 -12 -12z" />
    <path d="M1145 1319 c-4 -6 -5 -12 -2 -15 2 -3 7 2 10 11 7 17 1 20 -8 4z" />
    <path d="M1172 1310 c0 -14 2 -19 5 -12 2 6 2 18 0 25 -3 6 -5 1 -5 -13z" />
    <path d="M680 1300 c-6 -11 -8 -20 -6 -20 3 0 10 9 16 20 6 11 8 20 6 20 -3 0
-10 -9 -16 -20z" />
    <path d="M730 1300 c-6 -11 -8 -20 -6 -20 3 0 10 9 16 20 6 11 8 20 6 20 -3 0
-10 -9 -16 -20z" />
    <path d="M656 1253 l-7 -18 12 12 c7 7 10 15 7 18 -3 3 -9 -2 -12 -12z" />
    <path d="M706 1253 l-7 -18 12 12 c7 7 10 15 7 18 -3 3 -9 -2 -12 -12z" />
    <path d="M627 1195 c-24 -50 -20 -58 4 -12 11 22 19 41 17 43 -3 2 -12 -12
-21 -31z" />
    <path d="M1274 1208 l-7 -11 11 7 c12 7 16 16 8 16 -3 0 -8 -5 -12 -12z" />
    <path d="M1753 1213 c4 -3 10 -3 14 0 3 4 0 7 -7 7 -7 0 -10 -3 -7 -7z" />
    <path d="M676 1193 l-7 -18 12 12 c7 7 10 15 7 18 -3 3 -9 -2 -12 -12z" />
    <path d="M1694 1194 l-19 -15 25 12 c31 14 36 19 24 19 -6 0 -19 -7 -30 -16z" />
    <path d="M1790 1201 c0 -5 -10 -12 -22 -14 l-23 -4 32 -2 c17 0 34 -7 36 -13
l5 -13 1 13 c1 7 -6 20 -14 28 -8 9 -15 11 -15 5z" />
    <path d="M1296 1183 l-7 -18 12 12 c7 7 10 15 7 18 -3 3 -9 -2 -12 -12z" />
    <path d="M2045 1176 c0 -13 3 -22 8 -19 4 2 7 13 7 24 0 10 -3 19 -7 19 -5 0
-8 -11 -8 -24z" />
    <path d="M826 1168 c-9 -12 -16 -19 -16 -14 0 5 -19 -7 -42 -26 -24 -19 -50
-37 -58 -40 l-14 -4 10 -7 c6 -3 20 2 31 13 12 10 23 16 27 13 3 -3 8 2 12 11
3 9 9 14 13 12 3 -2 22 8 40 23 l34 28 -11 7 -11 6 -15 -22z" />
    <path d="M1253 1178 c-15 -20 -25 -38 -20 -38 3 0 12 11 21 25 17 26 16 35 -1
13z" />
    <path d="M2448 1183 c6 -2 10 -9 6 -14 -3 -5 4 -9 15 -9 10 0 22 -6 24 -12 l5
-13 1 14 c1 17 -28 41 -49 40 l-15 -1 13 -5z" />
    <path d="M1073 1173 c4 -3 10 -3 14 0 3 4 0 7 -7 7 -7 0 -10 -3 -7 -7z" />
    <path d="M1715 1170 l-6 -10 15 6 c18 7 21 14 7 14 -6 0 -13 -4 -16 -10z" />
    <path d="M1634 1148 l-19 -23 23 19 c21 18 27 26 19 26 -2 0 -12 -10 -23 -22z" />
    <path d="M655 1149 c-4 -6 -5 -12 -2 -15 2 -3 7 2 10 11 7 17 1 20 -8 4z" />
    <path d="M1043 1148 c-15 -20 -25 -38 -20 -38 3 0 12 11 21 25 17 26 16 35 -1
13z" />
    <path d="M1076 1145 c-9 -26 -7 -32 5 -12 6 10 9 21 6 23 -2 3 -7 -2 -11 -11z" />
    <path d="M1348 1135 c-36 -24 -56 -45 -42 -45 4 0 17 8 28 19 12 10 31 22 44
26 l22 6 1 -28 1 -28 8 30 c4 17 8 24 9 16 0 -8 4 -11 7 -8 9 8 -15 37 -30 36
-6 0 -28 -11 -48 -24z" />
    <path d="M1980 1128 l-24 -33 18 14 c16 13 41 51 33 51 -2 0 -14 -15 -27 -32z" />
    <path d="M2409 1133 l-24 -28 28 24 c25 23 32 31 24 31 -2 0 -14 -12 -28 -27z" />
    <path d="M2745 1149 c-4 -6 -5 -12 -2 -15 2 -3 7 2 10 11 7 17 1 20 -8 4z" />
    <path d="M2174 1138 l-7 -11 11 7 c12 7 16 16 8 16 -3 0 -8 -5 -12 -12z" />
    <path d="M2369 1133 l-14 -18 18 14 c16 13 21 21 13 21 -2 0 -10 -8 -17 -17z" />
    <path d="M1260 1120 c-6 -11 -8 -20 -6 -20 3 0 10 9 16 20 6 11 8 20 6 20 -3
0 -10 -9 -16 -20z" />
    <path d="M1214 1118 l-7 -11 11 7 c12 7 16 16 8 16 -3 0 -8 -5 -12 -12z" />
    <path d="M1594 1104 l-19 -15 23 11 c12 6 22 13 22 15 0 8 -5 6 -26 -11z" />
    <path d="M2014 1108 l-7 -11 11 7 c7 4 12 9 12 12 0 8 -9 4 -16 -8z" />
    <path d="M2467 1074 l-37 -47 7 -11 7 -11 6 20 c7 26 51 85 63 85 l9 0 -7 -17
c-15 -39 -16 -47 -1 -23 39 64 2 67 -47 4z" />
    <path d="M2676 1105 c-9 -26 -7 -32 5 -12 6 10 9 21 6 23 -2 3 -7 -2 -11 -11z" />
    <path d="M1050 1090 c-6 -11 -8 -20 -6 -20 3 0 10 9 16 20 6 11 8 20 6 20 -3
0 -10 -9 -16 -20z" />
    <path d="M1752 1068 c-103 -90 -99 -88 -129 -88 l-18 -1 17 -10 17 -10 56 46
c31 25 66 54 77 65 12 11 25 17 30 14 4 -3 8 2 8 10 0 9 -2 16 -5 16 -2 0 -26
-19 -53 -42z" />
    <path d="M2139 1093 l-14 -18 18 14 c16 13 21 21 13 21 -2 0 -10 -8 -17 -17z" />
    <path d="M2340 1089 c-7 -11 -10 -23 -7 -25 2 -2 9 7 15 21 14 30 7 33 -8 4z" />
    <path d="M2921 1094 l1 -19 5 13 c3 7 2 16 -1 19 -3 4 -6 -2 -5 -13z" />
    <path d="M580 1090 c0 -7 3 -10 7 -7 3 4 3 10 0 14 -4 3 -7 0 -7 -7z" />
    <path d="M1820 1090 c0 -7 3 -10 7 -7 3 4 3 10 0 14 -4 3 -7 0 -7 -7z" />
    <path d="M2370 1079 c-7 -11 -10 -23 -7 -25 2 -2 9 7 15 21 14 30 7 33 -8 4z" />
    <path d="M2720 1090 c0 -7 3 -10 7 -7 3 4 3 10 0 14 -4 3 -7 0 -7 -7z" />
    <path d="M1607 1065 c-15 -14 -27 -30 -27 -36 l0 -10 13 13 c29 32 50 58 46
58 -2 0 -17 -11 -32 -25z" />
    <path d="M616 1064 l-6 -15 14 -15 15 -14 6 10 c3 6 0 13 -9 16 l-15 6 6 14
c3 8 3 14 0 14 -3 0 -8 -7 -11 -16z" />
    <path d="M667 1065 l-18 -13 9 -6 c5 -3 17 1 27 8 l18 13 -9 6 c-5 3 -17 -1
-27 -8z" />
    <path d="M1275 1070 l-6 -10 15 6 c18 7 21 14 7 14 -6 0 -13 -4 -16 -10z" />
    <path d="M1923 1066 c-5 -7 -28 -25 -53 -39 -25 -15 -41 -27 -35 -27 5 0 4 -5
-3 -12 -7 -7 -12 -15 -12 -19 0 -4 13 5 29 19 42 40 84 67 99 64 17 -4 15 15
-3 22 -8 3 -18 -1 -22 -8z" />
    <path d="M1230 1068 c0 -2 -7 -25 -15 -53 l-15 -50 25 30 c13 17 24 35 24 40
1 6 -4 3 -10 -5 l-11 -15 6 28 c4 15 4 27 1 27 -3 0 -5 -1 -5 -2z" />
    <path d="M1391 1054 l1 -19 5 13 c3 7 2 16 -1 19 -3 4 -6 -2 -5 -13z" />
    <path d="M1800 1060 c0 -7 3 -10 7 -7 3 4 3 10 0 14 -4 3 -7 0 -7 -7z" />
    <path d="M1990 1060 c0 -7 3 -10 7 -7 3 4 3 10 0 14 -4 3 -7 0 -7 -7z" />
    <path d="M2087 1032 c-20 -21 -37 -42 -37 -46 0 -5 12 3 27 18 l27 27 6 -17 7
-18 6 34 c4 18 6 35 4 36 -2 2 -20 -13 -40 -34z" />
    <path d="M2904 1058 l-7 -11 11 7 c12 7 16 16 8 16 -3 0 -8 -5 -12 -12z" />
    <path d="M1174 1048 l-7 -11 11 7 c12 7 16 16 8 16 -3 0 -8 -5 -12 -12z" />
    <path d="M1422 1040 c0 -14 2 -19 5 -12 2 6 2 18 0 25 -3 6 -5 1 -5 -13z" />
    <path d="M2320 1040 c0 -7 3 -10 7 -7 3 4 3 10 0 14 -4 3 -7 0 -7 -7z" />
    <path d="M2639 1028 c-6 -13 -29 -47 -51 -76 -22 -30 -38 -56 -35 -58 3 -3 13
8 23 25 10 17 24 33 32 36 l14 5 -6 -27 -7 -28 11 15 c5 8 10 28 10 43 0 15 7
41 15 57 9 17 13 30 11 30 -3 0 -11 -10 -17 -22z" />
    <path d="M1020 1030 c0 -7 3 -10 7 -7 3 4 3 10 0 14 -4 3 -7 0 -7 -7z" />
    <path d="M1943 1005 l0 -40 4 23 c2 12 2 30 0 40 -3 9 -5 -1 -4 -23z" />
    <path d="M1980 1030 c0 -7 3 -10 7 -7 3 4 3 10 0 14 -4 3 -7 0 -7 -7z" />
    <path d="M2490 1030 c0 -7 3 -10 7 -7 3 4 3 10 0 14 -4 3 -7 0 -7 -7z" />
    <path d="M2890 1030 c0 -7 3 -10 7 -7 3 4 3 10 0 14 -4 3 -7 0 -7 -7z" />
    <path d="M546 1015 c-9 -26 -7 -32 5 -12 6 10 9 21 6 23 -2 3 -7 -2 -11 -11z" />
    <path d="M1150 1011 l-11 -21 11 -18 11 -17 -4 15 c-2 8 0 23 5 33 5 10 7 21
5 24 -3 2 -10 -5 -17 -16z" />
    <path d="M1790 1020 c0 -7 3 -10 7 -7 3 4 3 10 0 14 -4 3 -7 0 -7 -7z" />
    <path d="M2690 1020 c0 -7 3 -10 7 -7 3 4 3 10 0 14 -4 3 -7 0 -7 -7z" />
    <path d="M1382 995 l0 -30 5 18 c2 9 2 23 0 30 -3 6 -5 -1 -5 -18z" />
    <path d="M1541 1004 l1 -19 5 13 c3 7 2 16 -1 19 -3 4 -6 -2 -5 -13z" />
    <path d="M2341 1004 l1 -19 5 13 c3 7 2 16 -1 19 -3 4 -6 -2 -5 -13z" />
    <path d="M966 995 c-3 -9 -6 -26 -5 -38 l1 -22 8 35 c9 37 7 52 -4 25z" />
    <path d="M1411 985 c-1 -34 14 -55 39 -54 l15 0 -20 8 -20 8 -6 34 -6 34 -2
-30z" />
    <path d="M1570 996 c0 -8 4 -17 9 -20 l9 -6 -5 20 c-6 23 -13 26 -13 6z" />
    <path d="M2300 989 c-7 -11 -9 -23 -6 -27 3 -3 6 0 6 6 0 7 8 12 18 13 l17 1
-13 5 c-6 2 -10 9 -6 14 3 5 3 9 0 9 -3 0 -10 -9 -16 -21z" />
    <path d="M2475 999 c-4 -6 -5 -12 -2 -15 2 -3 7 2 10 11 7 17 1 20 -8 4z" />
    <path d="M600 997 c0 -17 31 -67 39 -62 9 5 23 -19 25 -42 2 -22 70 -103 83
-98 7 2 15 0 18 -5 4 -6 1 -10 -5 -10 -6 0 -8 -5 -5 -11 4 -6 13 -8 20 -5 7 2
19 -1 26 -7 8 -7 -6 9 -31 36 -24 26 -50 47 -57 47 -7 0 -14 5 -14 10 -1 6 -2
16 -3 23 -1 6 -8 11 -14 9 -7 -1 -12 3 -10 10 1 7 -10 33 -25 58 -15 25 -27
41 -27 35 0 -5 -5 -3 -10 5 -5 8 -10 11 -10 7z m141 -184 l14 -18 -17 14 c-10
7 -18 15 -18 17 0 8 8 3 21 -13z" />
    <path d="M1514 988 l-7 -11 11 7 c12 7 16 16 8 16 -3 0 -8 -5 -12 -12z" />
    <path d="M2140 990 c0 -7 3 -10 7 -7 3 4 3 10 0 14 -4 3 -7 0 -7 -7z" />
    <path d="M2676 985 c-9 -26 -7 -32 5 -12 6 10 9 21 6 23 -2 3 -7 -2 -11 -11z" />
    <path d="M2100 980 c0 -7 3 -10 7 -7 3 4 3 10 0 14 -4 3 -7 0 -7 -7z" />
    <path d="M2350 980 c-18 -12 -2 -12 25 0 l20 9 -15 0 c-8 0 -22 -4 -30 -9z" />
    <path d="M530 970 c0 -7 3 -10 7 -7 3 4 3 10 0 14 -4 3 -7 0 -7 -7z" />
    <path d="M996 965 c-3 -9 -6 -22 -5 -28 0 -7 5 -1 10 12 5 13 8 26 5 28 -2 2
-6 -3 -10 -12z" />
    <path d="M1775 970 c-3 -5 -30 -26 -60 -46 -30 -20 -55 -41 -55 -47 0 -6 -3
-8 -6 -4 -11 10 -97 -64 -148 -126 -56 -71 -86 -134 -86 -183 l0 -34 11 0 11
0 -7 41 -7 42 10 -7 10 -6 8 28 c4 15 6 33 5 41 -1 7 2 10 7 7 5 -3 23 17 41
44 18 27 55 69 84 93 67 56 152 117 163 117 5 0 14 11 21 25 11 25 10 34 -2
15z" />
    <path d="M1975 970 c3 -5 8 -10 11 -10 3 0 2 5 -1 10 -3 6 -8 10 -11 10 -3 0
-2 -4 1 -10z" />
    <path d="M2012 964 l-23 -16 -20 5 -19 5 6 -9 c9 -15 40 -10 65 11 29 23 22
26 -9 4z" />
    <path d="M1088 939 c-36 -34 -74 -52 -89 -43 -5 3 -9 -1 -9 -8 l-1 -13 -14 19
c-8 11 -15 15 -15 9 0 -15 21 -29 47 -31 l21 -1 54 50 c29 27 50 49 46 49 -4
0 -22 -14 -40 -31z" />
    <path d="M1480 960 l-15 -10 12 0 c6 0 15 5 18 10 8 12 4 12 -15 0z" />
    <path d="M1568 958 c6 -6 18 -8 28 -6 l19 4 -28 6 -29 6 10 -10z" />
    <path d="M2420 960 c0 -7 3 -10 7 -7 3 4 3 10 0 14 -4 3 -7 0 -7 -7z" />
    <path d="M570 950 c0 -7 3 -10 7 -7 3 4 3 10 0 14 -4 3 -7 0 -7 -7z" />
    <path d="M2270 950 c0 -7 3 -10 7 -7 3 4 3 10 0 14 -4 3 -7 0 -7 -7z" />
    <path d="M2090 940 c0 -7 3 -10 7 -7 3 4 3 10 0 14 -4 3 -7 0 -7 -7z" />
    <path d="M2450 940 c0 -7 3 -10 7 -7 3 4 3 10 0 14 -4 3 -7 0 -7 -7z" />
    <path d="M2656 935 c-3 -9 -6 -22 -5 -28 0 -7 5 -1 10 12 5 13 8 26 5 28 -2 2
-6 -3 -10 -12z" />
    <path d="M2840 940 c0 -7 3 -10 7 -7 3 4 3 10 0 14 -4 3 -7 0 -7 -7z" />
    <path d="M1165 920 c-10 -11 -14 -20 -9 -20 5 0 15 9 22 20 7 11 11 20 9 20
-2 0 -12 -9 -22 -20z" />
    <path d="M1810 930 c0 -7 3 -10 7 -7 3 4 3 10 0 14 -4 3 -7 0 -7 -7z" />
    <path d="M2120 930 c0 -7 3 -10 7 -7 3 4 3 10 0 14 -4 3 -7 0 -7 -7z" />
    <path d="M2249 913 l-14 -18 18 14 c16 13 21 21 13 21 -2 0 -10 -8 -17 -17z" />
    <path d="M2411 914 l1 -19 5 13 c3 7 2 16 -1 19 -3 4 -6 -2 -5 -13z" />
    <path d="M1760 910 c0 -7 3 -10 7 -7 3 4 3 10 0 14 -4 3 -7 0 -7 -7z" />
    <path d="M2082 900 c0 -14 2 -19 5 -12 2 6 2 18 0 25 -3 6 -5 1 -5 -13z" />
    <path d="M2440 910 c0 -7 3 -10 7 -7 3 4 3 10 0 14 -4 3 -7 0 -7 -7z" />
    <path d="M2830 910 c0 -7 3 -10 7 -7 3 4 3 10 0 14 -4 3 -7 0 -7 -7z" />
    <path d="M2111 894 l1 -19 5 13 c3 7 2 16 -1 19 -3 4 -6 -2 -5 -13z" />
    <path d="M500 890 c0 -7 3 -10 7 -7 3 4 3 10 0 14 -4 3 -7 0 -7 -7z" />
    <path d="M546 885 c-9 -26 -7 -32 5 -12 6 10 9 21 6 23 -2 3 -7 -2 -11 -11z" />
    <path d="M1800 890 c0 -7 3 -10 7 -7 3 4 3 10 0 14 -4 3 -7 0 -7 -7z" />
    <path d="M2810 890 c0 -7 3 -10 7 -7 3 4 3 10 0 14 -4 3 -7 0 -7 -7z" />
    <path d="M2203 867 c-10 -13 -26 -26 -35 -30 -10 -3 -18 -11 -18 -17 l0 -11
13 7 c22 13 49 38 58 56 14 25 4 22 -18 -5z" />
    <path d="M2601 874 l1 -19 5 13 c3 7 2 16 -1 19 -3 4 -6 -2 -5 -13z" />
    <path d="M2640 880 c0 -7 3 -10 7 -7 3 4 3 10 0 14 -4 3 -7 0 -7 -7z" />
    <path d="M1750 870 c0 -7 3 -10 7 -7 3 4 3 10 0 14 -4 3 -7 0 -7 -7z" />
    <path d="M2410 870 c0 -7 3 -10 7 -7 3 4 3 10 0 14 -4 3 -7 0 -7 -7z" />
    <path d="M2510 865 c-20 -24 -6 -28 15 -5 10 11 13 20 8 20 -6 0 -16 -7 -23
-15z" />
    <path d="M490 860 c0 -7 3 -10 7 -7 3 4 3 10 0 14 -4 3 -7 0 -7 -7z" />
    <path d="M1790 860 c0 -7 3 -10 7 -7 3 4 3 10 0 14 -4 3 -7 0 -7 -7z" />
    <path d="M531 834 l1 -19 5 13 c3 7 2 16 -1 19 -3 4 -6 -2 -5 -13z" />
    <path d="M2080 841 c0 -6 4 -13 10 -16 l10 -6 -6 15 c-7 18 -14 21 -14 7z" />
    <path d="M2434 838 c-2 -4 -1 -9 4 -12 12 -7 45 -1 49 10 3 10 -47 13 -53 2z" />
    <path d="M2631 834 l1 -19 5 13 c3 7 2 16 -1 19 -3 4 -6 -2 -5 -13z" />
    <path d="M2737 795 l-48 -53 10 -6 10 -7 41 52 c22 28 40 55 40 60 0 5 -1 9
-2 8 -2 -1 -25 -25 -51 -54z" />
    <path d="M480 830 c0 -7 3 -10 7 -7 3 4 3 10 0 14 -4 3 -7 0 -7 -7z" />
    <path d="M1735 829 c-4 -6 -5 -12 -2 -15 2 -3 7 2 10 11 7 17 1 20 -8 4z" />
    <path d="M2110 830 c0 -7 3 -10 7 -7 3 4 3 10 0 14 -4 3 -7 0 -7 -7z" />
    <path d="M2593 800 c0 -25 2 -35 4 -22 2 12 2 32 0 45 -2 12 -4 2 -4 -23z" />
    <path d="M1780 820 c0 -7 3 -10 7 -7 3 4 3 10 0 14 -4 3 -7 0 -7 -7z" />
    <path d="M470 800 c0 -7 3 -10 7 -7 3 4 3 10 0 14 -4 3 -7 0 -7 -7z" />
    <path d="M2118 803 c7 -3 16 -2 19 1 4 3 -2 6 -13 5 l-19 -1 13 -5z" />
    <path d="M516 785 c-9 -26 -7 -32 5 -12 6 10 9 21 6 23 -2 3 -7 -2 -11 -11z" />
    <path d="M2621 784 l1 -19 5 13 c3 7 2 16 -1 19 -3 4 -6 -2 -5 -13z" />
    <path d="M460 760 c0 -7 3 -10 7 -7 3 4 3 10 0 14 -4 3 -7 0 -7 -7z" />
    <path d="M1702 745 c-17 -37 -14 -45 4 -12 9 16 14 31 11 33 -2 2 -9 -7 -15
-21z" />
    <path d="M500 740 c0 -7 3 -10 7 -7 3 4 3 10 0 14 -4 3 -7 0 -7 -7z" />
    <path d="M2600 743 c0 -6 8 -17 18 -24 l17 -14 -15 20 c-8 11 -16 22 -17 24
-2 2 -3 0 -3 -6z" />
    <path d="M2625 740 c3 -5 8 -10 11 -10 3 0 2 5 -1 10 -3 6 -8 10 -11 10 -3 0
-2 -4 1 -10z" />
    <path d="M451 724 l1 -19 5 13 c3 7 2 16 -1 19 -3 4 -6 -2 -5 -13z" />
    <path d="M817 718 c19 -21 31 -25 14 -5 -6 8 -9 16 -6 19 3 2 -2 5 -10 5 l-15
0 17 -19z" />
    <path d="M2670 730 c0 -5 5 -10 11 -10 5 0 7 5 4 10 -3 6 -8 10 -11 10 -2 0
-4 -4 -4 -10z" />
    <path d="M846 720 c5 -8 9 -18 9 -22 0 -3 3 -9 7 -13 3 -4 5 0 4 9 -1 9 -8 22
-16 29 l-13 12 9 -15z" />
    <path d="M880 684 l0 -15 10 6 c6 4 8 11 5 16 -9 14 -15 11 -15 -7z" />
    <path d="M1285 691 c-6 -11 9 -23 19 -14 9 9 7 23 -3 23 -6 0 -12 -4 -16 -9z" />
    <path d="M464 668 l-7 -11 11 7 c12 7 16 16 8 16 -3 0 -8 -5 -12 -12z" />
    <path d="M905 670 l-6 -10 23 -9 c13 -5 30 -6 37 -3 l15 6 -15 4 c-7 3 -22 9
-31 13 l-17 9 -6 -10z" />
    <path d="M1251 666 l-12 -14 9 -6 c6 -3 15 1 21 8 l12 14 -9 6 c-6 3 -15 -1
-21 -8z" />
    <path d="M972 641 l-14 -8 14 -6 c8 -3 27 -3 44 0 l29 5 -12 -9 -11 -8 88 0
c49 0 86 3 82 6 -4 4 -45 9 -92 12 -47 2 -92 7 -100 11 -8 3 -21 2 -28 -3z" />
    <path d="M1211 641 l-13 -8 9 -6 c5 -3 15 -2 22 2 l13 9 -9 5 c-5 3 -15 2 -22
-2z" />
    <path d="M1675 624 c-9 -15 -12 -23 -6 -20 11 7 35 46 28 46 -3 0 -12 -12 -22
-26z" />
    <path d="M1644 628 l-7 -11 11 7 c12 7 16 16 8 16 -3 0 -8 -5 -12 -12z" />
    <path d="M1068 603 c6 -2 18 -2 25 0 6 3 1 5 -13 5 -14 0 -19 -2 -12 -5z" />
    <path d="M1128 603 c6 -2 18 -2 25 0 6 3 1 5 -13 5 -14 0 -19 -2 -12 -5z" />
    <path d="M1624 598 l-7 -11 11 7 c12 7 16 16 8 16 -3 0 -8 -5 -12 -12z" />
    <path d="M1644 578 l-7 -11 11 7 c12 7 16 16 8 16 -3 0 -8 -5 -12 -12z" />
    <path d="M1600 570 l-15 -10 12 0 c6 0 15 5 18 10 8 12 4 12 -15 0z" />
    <path d="M1430 513 c0 -4 4 -14 9 -22 l9 -14 33 0 c42 -1 74 9 89 28 l12 14
-20 -4 c-12 -2 -30 -8 -41 -14 -28 -15 -57 -14 -75 5 -9 8 -16 12 -16 7z" />
  </g>
  <g transform="translate(0.000000,278.000000) scale(0.100000,-0.100000)" fill="#4b6a97" stroke="none">
    <path d="M2904 1508 l-7 -11 11 7 c12 7 16 16 8 16 -3 0 -8 -5 -12 -12z" />
    <path d="M1129 1483 l-14 -18 18 14 c9 7 17 15 17 17 0 8 -8 3 -21 -13z" />
    <path d="M1100 1445 l-12 -15 10 0 c5 0 15 7 22 15 l12 15 -10 0 c-5 0 -15 -7
-22 -15z" />
    <path d="M2896 1443 l-7 -18 12 12 c7 7 10 15 7 18 -3 3 -9 -2 -12 -12z" />
    <path d="M2850 1430 c-6 -11 -8 -20 -6 -20 3 0 10 9 16 20 6 11 8 20 6 20 -3
0 -10 -9 -16 -20z" />
    <path d="M1063 1393 c4 -3 1 -13 -6 -22 l-12 -16 17 14 c16 12 16 31 1 31 -4
0 -3 -3 0 -7z" />
    <path d="M990 1315 c-18 -19 -32 -36 -29 -38 2 -2 21 13 42 34 21 22 35 39 30
39 -5 0 -24 -16 -43 -35z" />
    <path d="M1170 1310 c0 -7 3 -10 7 -7 3 4 3 10 0 14 -4 3 -7 0 -7 -7z" />
    <path d="M1140 1301 c0 -6 4 -13 10 -16 l10 -6 -6 15 c-7 18 -14 21 -14 7z" />
    <path d="M933 1257 c-4 -8 -15 -17 -23 -20 l-15 -5 16 -1 c18 -1 45 26 36 35
-3 3 -9 -1 -14 -9z" />
    <path d="M880 1210 c0 -7 3 -10 7 -7 3 4 3 10 0 14 -4 3 -7 0 -7 -7z" />
    <path d="M1790 1190 c0 -5 5 -10 11 -10 5 0 7 5 4 10 -3 6 -8 10 -11 10 -2 0
-4 -4 -4 -10z" />
    <path d="M2046 1187 c3 -10 9 -15 12 -12 3 3 0 11 -7 18 l-12 12 7 -18z" />
    <path d="M815 1154 l-30 -26 21 11 c18 9 53 42 43 41 -2 -1 -17 -12 -34 -26z" />
    <path d="M1059 1163 l-14 -18 18 14 c9 7 17 15 17 17 0 8 -8 3 -21 -13z" />
    <path d="M2455 1170 l-6 -10 15 6 c18 7 21 14 7 14 -6 0 -13 -4 -16 -10z" />
    <path d="M1396 1145 c4 -8 10 -12 15 -9 11 6 2 24 -11 24 -5 0 -7 -7 -4 -15z" />
    <path d="M1654 1118 l-7 -11 11 7 c12 7 16 16 8 16 -3 0 -8 -5 -12 -12z" />
    <path d="M2154 1108 l-7 -11 11 7 c7 4 12 9 12 12 0 8 -9 4 -16 -8z" />
    <path d="M724 1095 c-10 -8 -14 -15 -8 -15 6 0 17 7 24 15 16 19 9 19 -16 0z" />
    <path d="M1800 1100 c0 -7 3 -10 7 -7 3 4 3 10 0 14 -4 3 -7 0 -7 -7z" />
    <path d="M1400 1090 c0 -7 3 -10 7 -7 3 4 3 10 0 14 -4 3 -7 0 -7 -7z" />
    <path d="M1422 1070 c0 -14 2 -19 5 -12 2 6 2 18 0 25 -3 6 -5 1 -5 -13z" />
    <path d="M1823 1055 l0 -40 4 23 c2 12 2 30 0 40 -3 9 -5 -1 -4 -23z" />
    <path d="M665 1059 c-11 -17 1 -21 15 -4 l12 15 -10 0 c-6 0 -14 -5 -17 -11z" />
    <path d="M1600 1060 l-15 -10 12 0 c6 0 15 5 18 10 8 12 4 12 -15 0z" />
    <path d="M1930 1066 c0 -2 7 -6 15 -10 8 -3 15 -1 15 4 0 6 -7 10 -15 10 -8 0
-15 -2 -15 -4z" />
    <path d="M1800 1050 c0 -7 3 -10 7 -7 3 4 3 10 0 14 -4 3 -7 0 -7 -7z" />
    <path d="M2110 1050 l-15 -10 18 0 c9 0 17 5 17 10 0 12 -1 12 -20 0z" />
    <path d="M1390 1040 c0 -7 3 -10 7 -7 3 4 3 10 0 14 -4 3 -7 0 -7 -7z" />
    <path d="M1210 1010 c0 -7 3 -10 7 -7 3 4 3 10 0 14 -4 3 -7 0 -7 -7z" />
    <path d="M1863 1013 c4 -3 10 -3 14 0 3 4 0 7 -7 7 -7 0 -10 -3 -7 -7z" />
    <path d="M2310 1010 c0 -7 3 -10 7 -7 3 4 3 10 0 14 -4 3 -7 0 -7 -7z" />
    <path d="M1835 1000 c3 -5 8 -10 11 -10 3 0 2 5 -1 10 -3 6 -8 10 -11 10 -3 0
-2 -4 1 -10z" />
    <path d="M1972 990 c0 -14 2 -19 5 -12 2 6 2 18 0 25 -3 6 -5 1 -5 -13z" />
    <path d="M1380 990 c0 -7 3 -10 7 -7 3 4 3 10 0 14 -4 3 -7 0 -7 -7z" />
    <path d="M1664 988 l-7 -11 11 7 c12 7 16 16 8 16 -3 0 -8 -5 -12 -12z" />
    <path d="M1637 983 c-10 -9 -9 -23 1 -23 5 0 9 7 9 15 0 17 -1 18 -10 8z" />
    <path d="M2327 979 c7 -7 15 -10 18 -7 3 3 -2 9 -12 12 l-18 7 12 -12z" />
    <path d="M2616 975 c4 -8 8 -15 10 -15 2 0 4 7 4 15 0 8 -4 15 -10 15 -5 0 -7
-7 -4 -15z" />
    <path d="M620 959 c7 -11 14 -19 16 -16 7 7 -7 37 -17 37 l-10 0 11 -21z" />
    <path d="M1555 970 c3 -5 8 -10 11 -10 3 0 2 5 -1 10 -3 6 -8 10 -11 10 -3 0
-2 -4 1 -10z" />
    <path d="M1756 943 l-7 -18 12 12 c7 7 10 15 7 18 -3 3 -9 -2 -12 -12z" />
    <path d="M2420 950 c0 -7 3 -10 7 -7 3 4 3 10 0 14 -4 3 -7 0 -7 -7z" />
    <path d="M1973 943 c4 -3 10 -3 14 0 3 4 0 7 -7 7 -7 0 -10 -3 -7 -7z" />
    <path d="M2620 940 c0 -7 3 -10 7 -7 3 4 3 10 0 14 -4 3 -7 0 -7 -7z" />
    <path d="M1433 933 c4 -3 10 -3 14 0 3 4 0 7 -7 7 -7 0 -10 -3 -7 -7z" />
    <path d="M646 922 c-3 -5 1 -15 8 -21 l14 -12 -2 15 c-3 21 -13 29 -20 18z" />
    <path d="M1165 919 c-4 -6 -5 -12 -2 -15 2 -3 7 2 10 11 7 17 1 20 -8 4z" />
    <path d="M2650 920 c0 -7 3 -10 7 -7 3 4 3 10 0 14 -4 3 -7 0 -7 -7z" />
    <path d="M1800 900 c0 -7 3 -10 7 -7 3 4 3 10 0 14 -4 3 -7 0 -7 -7z" />
    <path d="M2412 890 c0 -14 2 -19 5 -12 2 6 2 18 0 25 -3 6 -5 1 -5 -13z" />
    <path d="M990 880 c0 -7 3 -10 7 -7 3 4 3 10 0 14 -4 3 -7 0 -7 -7z" />
    <path d="M1665 880 l-6 -10 15 6 c18 7 21 14 7 14 -6 0 -13 -4 -16 -10z" />
    <path d="M2082 865 l0 -30 5 18 c2 9 2 23 0 30 -3 6 -5 -1 -5 -18z" />
    <path d="M670 876 c0 -2 7 -9 15 -16 l15 -13 -6 17 c-3 9 -10 16 -15 16 -5 0
-9 -2 -9 -4z" />
    <path d="M705 840 l-6 -10 16 0 16 0 -6 10 c-3 6 -8 10 -10 10 -2 0 -7 -4 -10
-10z" />
    <path d="M1613 843 c4 -3 10 -3 14 0 3 4 0 7 -7 7 -7 0 -10 -3 -7 -7z" />
    <path d="M1740 840 c0 -7 3 -10 7 -7 3 4 3 10 0 14 -4 3 -7 0 -7 -7z" />
    <path d="M2420 844 c0 -2 9 -8 19 -14 l20 -10 5 9 c3 5 -5 11 -19 13 -14 3
-25 4 -25 2z" />
    <path d="M2159 823 l-14 -18 18 14 c16 13 21 21 13 21 -2 0 -10 -8 -17 -17z" />
    <path d="M1574 818 l-7 -11 11 7 c12 7 16 16 8 16 -3 0 -8 -5 -12 -12z" />
    <path d="M720 816 c0 -2 8 -10 18 -17 l17 -14 -14 18 c-13 16 -21 21 -21 13z" />
    <path d="M2620 800 c0 -7 3 -10 7 -7 3 4 3 10 0 14 -4 3 -7 0 -7 -7z" />
    <path d="M1544 788 l-7 -11 11 7 c12 7 16 16 8 16 -3 0 -8 -5 -12 -12z" />
    <path d="M2739 783 l-14 -18 18 14 c16 13 21 21 13 21 -2 0 -10 -8 -17 -17z" />
    <path d="M765 770 c3 -5 8 -10 11 -10 2 0 4 5 4 10 0 6 -5 10 -11 10 -5 0 -7
-4 -4 -10z" />
    <path d="M2622 760 c0 -14 2 -19 5 -12 2 6 2 18 0 25 -3 6 -5 1 -5 -13z" />
    <path d="M1508 745 c-25 -34 -22 -43 3 -11 12 15 20 29 18 31 -2 1 -12 -7 -21
-20z" />
    <path d="M795 750 c-3 -5 -5 -10 -3 -11 2 0 11 -2 21 -4 l18 -3 -12 14 c-14
17 -16 17 -24 4z" />
    <path d="M2700 749 c0 -5 5 -7 10 -4 6 3 10 8 10 11 0 2 -4 4 -10 4 -5 0 -10
-5 -10 -11z" />
    <path d="M2664 718 l-7 -11 11 7 c12 7 16 16 8 16 -3 0 -8 -5 -12 -12z" />
    <path d="M1470 694 l0 -15 10 6 c6 4 8 11 5 16 -9 14 -15 11 -15 -7z" />
    <path d="M910 670 c0 -5 9 -14 20 -20 11 -6 20 -7 20 -3 0 5 -9 14 -20 21
l-20 12 0 -10z" />
    <path d="M1253 653 c4 -3 10 -3 14 0 3 4 0 7 -7 7 -7 0 -10 -3 -7 -7z" />
    <path d="M1443 643 c-3 -10 -8 -22 -10 -28 -3 -5 3 -1 11 9 16 20 21 36 11 36
-3 0 -8 -8 -12 -17z" />
    <path d="M975 640 c-7 -11 19 -20 34 -10 l13 7 -21 6 c-12 3 -23 2 -26 -3z" />
    <path d="M1198 638 c-16 -5 -28 -13 -28 -18 0 -5 14 -2 30 6 17 9 30 17 30 20
0 2 -1 4 -2 3 -2 0 -15 -5 -30 -11z" />
    <path d="M1040 620 c0 -7 3 -10 7 -7 3 4 3 10 0 14 -4 3 -7 0 -7 -7z" />
    <path d="M1098 603 c6 -2 18 -2 25 0 6 3 1 5 -13 5 -14 0 -19 -2 -12 -5z" />
    <path d="M1420 590 c0 -7 3 -10 7 -7 3 4 3 10 0 14 -4 3 -7 0 -7 -7z" />
    <path d="M1432 550 c0 -14 2 -19 5 -12 2 6 2 18 0 25 -3 6 -5 1 -5 -13z" />
    <path d="M1542 509 c-18 -16 -28 -29 -23 -29 5 0 17 8 27 18 10 9 21 17 26 17
8 0 13 14 6 20 -2 2 -18 -10 -36 -26z" />
  </g>
  <g transform="translate(0.000000,278.000000) scale(0.100000,-0.100000)" fill="#b8ceed" stroke="none">
    <path d="M1338 2513 c7 -3 16 -2 19 1 4 3 -2 6 -13 5 l-19 -1 13 -5z" />
    <path d="M1488 2513 c7 -3 16 -2 19 1 4 3 -2 6 -13 5 l-19 -1 13 -5z" />
    <path d="M1293 2503 c4 -3 10 -3 14 0 3 4 0 7 -7 7 -7 0 -10 -3 -7 -7z" />
    <path d="M1543 2503 c4 -3 10 -3 14 0 3 4 0 7 -7 7 -7 0 -10 -3 -7 -7z" />
    <path d="M1573 2493 c4 -3 10 -3 14 0 3 4 0 7 -7 7 -7 0 -10 -3 -7 -7z" />
    <path d="M1338 2463 c7 -3 16 -2 19 1 4 3 -2 6 -13 5 l-19 -1 13 -5z" />
    <path d="M1483 2463 c9 -2 23 -2 30 0 6 3 -1 5 -18 5 l-30 0 18 -5z" />
    <path d="M1293 2453 c4 -3 10 -3 14 0 3 4 0 7 -7 7 -7 0 -10 -3 -7 -7z" />
    <path d="M1538 2453 c7 -3 16 -2 19 1 4 3 -2 6 -13 5 l-19 -1 13 -5z" />
    <path d="M1685 2450 c3 -5 8 -10 11 -10 3 0 2 5 -1 10 -3 6 -8 10 -11 10 -3 0
-2 -4 1 -10z" />
    <path d="M1263 2443 c4 -3 10 -3 14 0 3 4 0 7 -7 7 -7 0 -10 -3 -7 -7z" />
    <path d="M1573 2443 c4 -3 10 -3 14 0 3 4 0 7 -7 7 -7 0 -10 -3 -7 -7z" />
    <path d="M1129 2413 l-24 -28 28 24 c25 23 32 31 24 31 -2 0 -14 -12 -28 -27z" />
    <path d="M1214 2418 l-7 -11 11 7 c12 7 16 16 8 16 -3 0 -8 -5 -12 -12z" />
    <path d="M1745 2410 c3 -5 8 -10 11 -10 3 0 2 5 -1 10 -3 6 -8 10 -11 10 -3 0
-2 -4 1 -10z" />
    <path d="M1164 2378 l-29 -33 33 29 c17 17 32 31 32 33 0 8 -8 1 -36 -29z" />
    <path d="M1653 2383 c4 -3 10 -3 14 0 3 4 0 7 -7 7 -7 0 -10 -3 -7 -7z" />
    <path d="M1754 2368 l-7 -11 11 7 c12 7 16 16 8 16 -3 0 -8 -5 -12 -12z" />
    <path d="M1867 2363 c18 -2 50 -2 70 0 21 2 7 4 -32 4 -38 0 -55 -2 -38 -4z" />
    <path d="M1710 2356 c0 -2 7 -7 16 -10 l15 -6 -6 10 c-6 10 -25 14 -25 6z" />
    <path d="M1773 2353 c4 -3 10 -3 14 0 3 4 0 7 -7 7 -7 0 -10 -3 -7 -7z" />
    <path d="M2013 2353 c4 -3 10 -3 14 0 3 4 0 7 -7 7 -7 0 -10 -3 -7 -7z" />
    <path d="M1685 2340 c3 -5 11 -10 16 -10 6 0 7 5 4 10 -3 6 -11 10 -16 10 -6
0 -7 -4 -4 -10z" />
    <path d="M2043 2343 c4 -3 10 -3 14 0 3 4 0 7 -7 7 -7 0 -10 -3 -7 -7z" />
    <path d="M1534 2328 l-7 -11 11 7 c12 7 16 16 8 16 -3 0 -8 -5 -12 -12z" />
    <path d="M1665 2330 c3 -5 8 -10 11 -10 3 0 2 5 -1 10 -3 6 -8 10 -11 10 -3 0
-2 -4 1 -10z" />
    <path d="M2073 2333 c4 -3 10 -3 14 0 3 4 0 7 -7 7 -7 0 -10 -3 -7 -7z" />
    <path d="M1610 2315 c-14 -8 -19 -14 -12 -15 l13 0 -7 -12 -7 -11 12 7 c6 4 8
12 5 18 l-7 11 17 -6 17 -7 -7 12 -7 11 17 -6 17 -7 -6 10 c-8 13 -15 12 -45
-5z" />
    <path d="M1878 2313 c18 -2 45 -2 60 0 15 2 0 4 -33 4 -33 0 -45 -2 -27 -4z" />
    <path d="M1071 2294 l1 -19 5 13 c3 7 2 16 -1 19 -3 4 -6 -2 -5 -13z" />
    <path d="M1479 2283 l-24 -28 28 24 c25 23 32 31 24 31 -2 0 -14 -12 -28 -27z" />
    <path d="M1768 2303 c7 -3 16 -2 19 1 4 3 -2 6 -13 5 l-19 -1 13 -5z" />
    <path d="M2013 2303 c4 -3 10 -3 14 0 3 4 0 7 -7 7 -7 0 -10 -3 -7 -7z" />
    <path d="M1123 2265 l0 -40 4 23 c2 12 2 30 0 40 -3 9 -5 -1 -4 -23z" />
    <path d="M1564 2288 l-7 -11 11 7 c12 7 16 16 8 16 -3 0 -8 -5 -12 -12z" />
    <path d="M1723 2293 c4 -3 10 -3 14 0 3 4 0 7 -7 7 -7 0 -10 -3 -7 -7z" />
    <path d="M2043 2293 c4 -3 10 -3 14 0 3 4 0 7 -7 7 -7 0 -10 -3 -7 -7z" />
    <path d="M2185 2280 c3 -5 8 -10 11 -10 3 0 2 5 -1 10 -3 6 -8 10 -11 10 -3 0
-2 -4 1 -10z" />
    <path d="M1519 2253 l-14 -18 18 14 c9 7 17 15 17 17 0 8 -8 3 -21 -13z" />
    <path d="M1644 2258 l-7 -11 11 7 c7 4 12 9 12 12 0 8 -9 4 -16 -8z" />
    <path d="M1071 2244 l1 -19 5 13 c3 7 2 16 -1 19 -3 4 -6 -2 -5 -13z" />
    <path d="M2013 2253 c4 -3 10 -3 14 0 3 4 0 7 -7 7 -7 0 -10 -3 -7 -7z" />
    <path d="M2225 2250 c3 -5 8 -10 11 -10 3 0 2 5 -1 10 -3 6 -8 10 -11 10 -3 0
-2 -4 1 -10z" />
    <path d="M2065 2230 c3 -5 8 -10 11 -10 3 0 2 5 -1 10 -3 6 -8 10 -11 10 -3 0
-2 -4 1 -10z" />
    <path d="M1977 2219 c7 -7 15 -10 18 -7 3 3 -2 9 -12 12 l-18 7 12 -12z" />
    <path d="M2185 2220 c3 -5 8 -10 11 -10 3 0 2 5 -1 10 -3 6 -8 10 -11 10 -3 0
-2 -4 1 -10z" />
    <path d="M2275 2210 c10 -11 20 -20 23 -20 3 0 -3 9 -13 20 -10 11 -20 20 -23
20 -3 0 3 -9 13 -20z" />
    <path d="M1080 2200 c0 -7 3 -10 7 -7 3 4 3 10 0 14 -4 3 -7 0 -7 -7z" />
    <path d="M1130 2200 c0 -7 3 -10 7 -7 3 4 3 10 0 14 -4 3 -7 0 -7 -7z" />
    <path d="M1416 2195 c-9 -26 -7 -32 5 -12 6 10 9 21 6 23 -2 3 -7 -2 -11 -11z" />
    <path d="M1504 2198 l-7 -11 11 7 c12 7 16 16 8 16 -3 0 -8 -5 -12 -12z" />
    <path d="M2064 2198 l-7 -11 11 7 c7 4 12 9 12 12 0 8 -9 4 -16 -8z" />
    <path d="M2103 2203 c4 -3 10 -3 14 0 3 4 0 7 -7 7 -7 0 -10 -3 -7 -7z" />
    <path d="M2240 2175 c13 -14 26 -25 28 -25 3 0 -5 11 -18 25 -13 14 -26 25
-28 25 -3 0 5 -11 18 -25z" />
    <path d="M2090 2181 c0 -6 4 -13 10 -16 l10 -6 -6 15 c-7 18 -14 21 -14 7z" />
    <path d="M2185 2170 c3 -5 8 -10 11 -10 3 0 2 5 -1 10 -3 6 -8 10 -11 10 -3 0
-2 -4 1 -10z" />
    <path d="M1534 2158 l-7 -11 11 7 c12 7 16 16 8 16 -3 0 -8 -5 -12 -12z" />
    <path d="M1180 2125 c19 -19 36 -35 39 -35 3 0 -10 16 -29 35 -19 19 -36 35
-39 35 -3 0 10 -16 29 -35z" />
    <path d="M1400 2150 c0 -7 3 -10 7 -7 3 4 3 10 0 14 -4 3 -7 0 -7 -7z" />
    <path d="M1450 2150 c0 -7 3 -10 7 -7 3 4 3 10 0 14 -4 3 -7 0 -7 -7z" />
    <path d="M2145 2140 c3 -5 8 -10 11 -10 3 0 2 5 -1 10 -3 6 -8 10 -11 10 -3 0
-2 -4 1 -10z" />
    <path d="M2220 2130 c0 -7 3 -10 7 -7 3 4 3 10 0 14 -4 3 -7 0 -7 -7z" />
    <path d="M2280 2077 l5 -62 3 54 c2 30 0 58 -5 62 l-8 8 5 -62z" />
    <path d="M1391 2114 l1 -19 5 13 c3 7 2 16 -1 19 -3 4 -6 -2 -5 -13z" />
    <path d="M1441 2120 c0 -8 4 -22 9 -30 12 -18 12 -2 0 25 l-9 20 0 -15z" />
    <path d="M1120 2117 c0 -2 15 -16 33 -33 l32 -29 -29 33 c-28 30 -36 37 -36
29z" />
    <path d="M2332 2100 c0 -14 2 -19 5 -12 2 6 2 18 0 25 -3 6 -5 1 -5 -13z" />
    <path d="M2180 2100 c0 -7 3 -10 7 -7 3 4 3 10 0 14 -4 3 -7 0 -7 -7z" />
    <path d="M2230 2100 c0 -7 3 -10 7 -7 3 4 3 10 0 14 -4 3 -7 0 -7 -7z" />
    <path d="M1500 2090 c0 -7 3 -10 7 -7 3 4 3 10 0 14 -4 3 -7 0 -7 -7z" />
    <path d="M1273 2063 c4 -3 10 -3 14 0 3 4 0 7 -7 7 -7 0 -10 -3 -7 -7z" />
    <path d="M2192 2045 l0 -30 5 18 c2 9 2 23 0 30 -3 6 -5 -1 -5 -18z" />
    <path d="M2242 2045 l0 -30 5 18 c2 9 2 23 0 30 -3 6 -5 -1 -5 -18z" />
    <path d="M1379 2032 l-6 -33 10 10 c5 5 7 19 5 32 l-4 24 -5 -33z" />
    <path d="M1430 2013 l-5 -42 8 8 c5 5 7 24 5 42 l-3 34 -5 -42z" />
    <path d="M2332 2030 c0 -14 2 -19 5 -12 2 6 2 18 0 25 -3 6 -5 1 -5 -13z" />
    <path d="M1243 2023 c4 -3 10 -3 14 0 3 4 0 7 -7 7 -7 0 -10 -3 -7 -7z" />
    <path d="M1350 2020 c0 -7 3 -10 7 -7 3 4 3 10 0 14 -4 3 -7 0 -7 -7z" />
    <path d="M1270 2010 c0 -7 3 -10 7 -7 3 4 3 10 0 14 -4 3 -7 0 -7 -7z" />
    <path d="M1450 2000 c0 -7 3 -10 7 -7 3 4 3 10 0 14 -4 3 -7 0 -7 -7z" />
    <path d="M1500 2000 c0 -7 3 -10 7 -7 3 4 3 10 0 14 -4 3 -7 0 -7 -7z" />
    <path d="M2270 1980 c0 -7 3 -10 7 -7 3 4 3 10 0 14 -4 3 -7 0 -7 -7z" />
    <path d="M2320 1980 c0 -7 3 -10 7 -7 3 4 3 10 0 14 -4 3 -7 0 -7 -7z" />
    <path d="M2164 1968 l-7 -11 11 7 c7 4 12 9 12 12 0 8 -9 4 -16 -8z" />
    <path d="M1200 1950 c0 -7 3 -10 7 -7 3 4 3 10 0 14 -4 3 -7 0 -7 -7z" />
    <path d="M1353 1943 c4 -3 10 -3 14 0 3 4 0 7 -7 7 -7 0 -10 -3 -7 -7z" />
    <path d="M1525 1940 c3 -5 8 -10 11 -10 3 0 2 5 -1 10 -3 6 -8 10 -11 10 -3 0
-2 -4 1 -10z" />
    <path d="M1318 1933 c7 -3 16 -2 19 1 4 3 -2 6 -13 5 l-19 -1 13 -5z" />
    <path d="M2180 1930 l-25 -8 22 -1 c12 -1 25 4 28 9 3 6 5 10 3 9 -2 -1 -14
-5 -28 -9z" />
    <path d="M1238 1923 c12 -2 30 -2 40 0 9 3 -1 5 -23 4 l-40 0 23 -4z" />
    <path d="M2219 1893 l-24 -28 28 24 c25 23 32 31 24 31 -2 0 -14 -12 -28 -27z" />
    <path d="M1495 1900 c3 -5 8 -10 11 -10 3 0 2 5 -1 10 -3 6 -8 10 -11 10 -3 0
-2 -4 1 -10z" />
    <path d="M1570 1885 c13 -14 26 -25 28 -25 3 0 -5 11 -18 25 -13 14 -26 25
-28 25 -3 0 5 -11 18 -25z" />
    <path d="M2254 1858 l-29 -33 33 29 c30 28 37 36 29 36 -2 0 -16 -15 -33 -32z" />
    <path d="M1535 1850 c10 -11 20 -20 23 -20 3 0 -3 9 -13 20 -10 11 -20 20 -23
20 -3 0 3 -9 13 -20z" />
    <path d="M1645 1830 c3 -5 8 -10 11 -10 3 0 2 5 -1 10 -3 6 -8 10 -11 10 -3 0
-2 -4 1 -10z" />
    <path d="M2103 1823 c4 -3 10 -3 14 0 3 4 0 7 -7 7 -7 0 -10 -3 -7 -7z" />
    <path d="M2204 1818 l-7 -11 11 7 c7 4 12 9 12 12 0 8 -9 4 -16 -8z" />
    <path d="M1675 1810 c3 -5 8 -10 11 -10 3 0 2 5 -1 10 -3 6 -8 10 -11 10 -3 0
-2 -4 1 -10z" />
    <path d="M2068 1813 c7 -3 16 -2 19 1 4 3 -2 6 -13 5 l-19 -1 13 -5z" />
    <path d="M1605 1800 c3 -5 8 -10 11 -10 3 0 2 5 -1 10 -3 6 -8 10 -11 10 -3 0
-2 -4 1 -10z" />
    <path d="M2018 1803 c7 -3 16 -2 19 1 4 3 -2 6 -13 5 l-19 -1 13 -5z" />
    <path d="M2140 1790 c-8 -5 -10 -10 -5 -10 6 0 17 5 25 10 8 5 11 10 5 10 -5
0 -17 -5 -25 -10z" />
    <path d="M1635 1780 c3 -5 8 -10 11 -10 3 0 2 5 -1 10 -3 6 -8 10 -11 10 -3 0
-2 -4 1 -10z" />
    <path d="M2103 1773 c4 -3 10 -3 14 0 3 4 0 7 -7 7 -7 0 -10 -3 -7 -7z" />
    <path d="M1778 1763 c7 -3 16 -2 19 1 4 3 -2 6 -13 5 l-19 -1 13 -5z" />
    <path d="M2063 1763 c4 -3 10 -3 14 0 3 4 0 7 -7 7 -7 0 -10 -3 -7 -7z" />
    <path d="M1895 1750 c3 -5 8 -10 11 -10 3 0 2 5 -1 10 -3 6 -8 10 -11 10 -3 0
-2 -4 1 -10z" />
    <path d="M2040 1736 c0 -2 8 -10 18 -17 l17 -14 -14 18 c-13 16 -21 21 -21 13z" />
    <path d="M1743 1723 c4 -3 10 -3 14 0 3 4 0 7 -7 7 -7 0 -10 -3 -7 -7z" />
    <path d="M1778 1713 c7 -3 16 -2 19 1 4 3 -2 6 -13 5 l-19 -1 13 -5z" />
    <path d="M1865 1710 c3 -5 8 -10 11 -10 3 0 2 5 -1 10 -3 6 -8 10 -11 10 -3 0
-2 -4 1 -10z" />
    <path d="M1983 1693 c4 -3 10 -3 14 0 3 4 0 7 -7 7 -7 0 -10 -3 -7 -7z" />
    <path d="M2010 1690 c0 -7 3 -10 7 -7 3 4 3 10 0 14 -4 3 -7 0 -7 -7z" />
    <path d="M2103 1693 c4 -3 10 -3 14 0 3 4 0 7 -7 7 -7 0 -10 -3 -7 -7z" />
    <path d="M1905 1680 c3 -5 8 -10 11 -10 3 0 2 5 -1 10 -3 6 -8 10 -11 10 -3 0
-2 -4 1 -10z" />
    <path d="M1953 1653 c4 -3 10 -3 14 0 3 4 0 7 -7 7 -7 0 -10 -3 -7 -7z" />
    <path d="M1983 1643 c4 -3 10 -3 14 0 3 4 0 7 -7 7 -7 0 -10 -3 -7 -7z" />
    <path d="M2103 1643 c4 -3 10 -3 14 0 3 4 0 7 -7 7 -7 0 -10 -3 -7 -7z" />
    <path d="M2028 1633 c6 -2 18 -2 25 0 6 3 1 5 -13 5 -14 0 -19 -2 -12 -5z" />
    <path d="M1443 290 c0 -30 2 -43 4 -27 2 15 2 39 0 55 -2 15 -4 2 -4 -28z" />
    <path d="M1524 318 l-19 -23 23 19 c21 18 27 26 19 26 -2 0 -12 -10 -23 -22z" />
    <path d="M1625 330 c3 -5 8 -10 11 -10 3 0 2 5 -1 10 -3 6 -8 10 -11 10 -3 0
-2 -4 1 -10z" />
    <path d="M1730 330 c0 -7 3 -10 7 -7 3 4 3 10 0 14 -4 3 -7 0 -7 -7z" />
    <path d="M1960 330 c0 -7 3 -10 7 -7 3 4 3 10 0 14 -4 3 -7 0 -7 -7z" />
    <path d="M2260 336 c0 -2 8 -10 18 -17 l17 -14 -14 18 c-13 16 -21 21 -21 13z" />
    <path d="M2333 295 c0 -27 2 -38 4 -22 2 15 2 37 0 50 -2 12 -4 0 -4 -28z" />
    <path d="M2074 318 l-7 -11 11 7 c12 7 16 16 8 16 -3 0 -8 -5 -12 -12z" />
    <path d="M1212 273 l-2 -53 29 0 29 0 13 18 13 17 -14 -12 c-8 -7 -24 -13 -36
-13 l-23 0 -4 48 -3 47 -2 -52z" />
    <path d="M1253 313 c4 -3 10 -3 14 0 3 4 0 7 -7 7 -7 0 -10 -3 -7 -7z" />
    <path d="M1540 305 c-7 -9 -11 -17 -9 -20 3 -2 10 5 17 15 14 24 10 26 -8 5z" />
    <path d="M1622 304 c10 -10 20 -16 22 -13 3 3 -5 11 -17 18 l-22 13 17 -18z" />
    <path d="M1744 298 l-7 -11 11 7 c12 7 16 16 8 16 -3 0 -8 -5 -12 -12z" />
    <path d="M1312 270 c0 -14 2 -19 5 -12 2 6 2 18 0 25 -3 6 -5 1 -5 -13z" />
    <path d="M1710 280 c0 -7 3 -10 7 -7 3 4 3 10 0 14 -4 3 -7 0 -7 -7z" />
    <path d="M2082 270 c0 -14 2 -19 5 -12 2 6 2 18 0 25 -3 6 -5 1 -5 -13z" />
    <path d="M2202 270 c0 -14 2 -19 5 -12 2 6 2 18 0 25 -3 6 -5 1 -5 -13z" />
    <path d="M2270 286 c0 -2 8 -10 18 -17 l17 -14 -14 18 c-13 16 -21 21 -21 13z" />
    <path d="M2305 280 c3 -5 8 -10 11 -10 3 0 2 5 -1 10 -3 6 -8 10 -11 10 -3 0
-2 -4 1 -10z" />
    <path d="M2060 250 c0 -7 3 -10 7 -7 3 4 3 10 0 14 -4 3 -7 0 -7 -7z" />
    <path d="M1350 240 c0 -7 3 -10 7 -7 3 4 3 10 0 14 -4 3 -7 0 -7 -7z" />
    <path d="M1610 234 l-25 -14 16 0 c9 0 22 7 29 15 15 18 13 18 -20 -1z" />
    <path d="M2159 233 l-14 -18 18 14 c16 13 21 21 13 21 -2 0 -10 -8 -17 -17z" />
    <path d="M1547 229 c7 -7 15 -10 18 -7 3 3 -2 9 -12 12 l-18 7 12 -12z" />
    <path d="M1690 230 c0 -7 3 -10 7 -7 3 4 3 10 0 14 -4 3 -7 0 -7 -7z" />
    <path d="M1748 233 c6 -2 18 -2 25 0 6 3 1 5 -13 5 -14 0 -19 -2 -12 -5z" />
    <path d="M2315 230 c3 -5 8 -10 11 -10 3 0 2 5 -1 10 -3 6 -8 10 -11 10 -3 0
-2 -4 1 -10z" />
    <path d="M1088 223 c12 -2 32 -2 45 0 12 2 2 4 -23 4 -25 0 -35 -2 -22 -4z" />
    <path d="M1525 220 c3 -5 8 -10 11 -10 3 0 2 5 -1 10 -3 6 -8 10 -11 10 -3 0
-2 -4 1 -10z" />
    <path d="M1634 218 l-7 -11 11 7 c7 4 12 9 12 12 0 8 -9 4 -16 -8z" />
    <path d="M1706 213 l-7 -18 12 12 c7 7 10 15 7 18 -3 3 -9 -2 -12 -12z" />
    <path d="M2075 220 c3 -5 8 -10 11 -10 3 0 2 5 -1 10 -3 6 -8 10 -11 10 -3 0
-2 -4 1 -10z" />
    <path d="M1790 210 c0 -7 3 -10 7 -7 3 4 3 10 0 14 -4 3 -7 0 -7 -7z" />
    <path d="M1910 210 c0 -7 3 -10 7 -7 3 4 3 10 0 14 -4 3 -7 0 -7 -7z" />
    <path d="M2160 210 l-15 -10 12 0 c6 0 15 5 18 10 8 12 4 12 -15 0z" />
    <path d="M2240 210 c0 -7 3 -10 7 -7 3 4 3 10 0 14 -4 3 -7 0 -7 -7z" />
    <path d="M1263 203 c4 -3 10 -3 14 0 3 4 0 7 -7 7 -7 0 -10 -3 -7 -7z" />
  </g>
  <g transform="translate(0.000000,278.000000) scale(0.100000,-0.100000)" fill="#72b6e8" stroke="none">
    <path d="M1353 2513 c4 -3 10 -3 14 0 3 4 0 7 -7 7 -7 0 -10 -3 -7 -7z" />
    <path d="M1473 2513 c4 -3 10 -3 14 0 3 4 0 7 -7 7 -7 0 -10 -3 -7 -7z" />
    <path d="M1533 2503 c4 -3 10 -3 14 0 3 4 0 7 -7 7 -7 0 -10 -3 -7 -7z" />
    <path d="M1675 2400 c3 -5 8 -10 11 -10 3 0 2 5 -1 10 -3 6 -8 10 -11 10 -3 0
-2 -4 1 -10z" />
    <path d="M1755 2400 c3 -5 8 -10 11 -10 3 0 2 5 -1 10 -3 6 -8 10 -11 10 -3 0
-2 -4 1 -10z" />
    <path d="M1783 2353 c4 -3 10 -3 14 0 3 4 0 7 -7 7 -7 0 -10 -3 -7 -7z" />
    <path d="M1823 2313 c9 -2 23 -2 30 0 6 3 -1 5 -18 5 l-30 0 18 -5z" />
    <path d="M1958 2313 c6 -2 18 -2 25 0 6 3 1 5 -13 5 -14 0 -19 -2 -12 -5z" />
    <path d="M1120 2300 c0 -7 3 -10 7 -7 3 4 3 10 0 14 -4 3 -7 0 -7 -7z" />
    <path d="M1072 2270 c0 -14 2 -19 5 -12 2 6 2 18 0 25 -3 6 -5 1 -5 -13z" />
    <path d="M1585 2280 l-6 -10 15 6 c18 7 21 14 7 14 -6 0 -13 -4 -16 -10z" />
    <path d="M1504 2238 l-7 -11 11 7 c7 4 12 9 12 12 0 8 -9 4 -16 -8z" />
    <path d="M1583 2214 l-28 -25 33 22 c17 13 32 24 32 26 0 8 -11 1 -37 -23z" />
    <path d="M2113 2203 c4 -3 10 -3 14 0 3 4 0 7 -7 7 -7 0 -10 -3 -7 -7z" />
    <path d="M2195 2160 c3 -5 8 -10 11 -10 3 0 2 5 -1 10 -3 6 -8 10 -11 10 -3 0
-2 -4 1 -10z" />
    <path d="M2280 2120 c0 -7 3 -10 7 -7 3 4 3 10 0 14 -4 3 -7 0 -7 -7z" />
    <path d="M1145 2090 c3 -5 8 -10 11 -10 3 0 2 5 -1 10 -3 6 -8 10 -11 10 -3 0
-2 -4 1 -10z" />
    <path d="M1450 2080 c0 -7 3 -10 7 -7 3 4 3 10 0 14 -4 3 -7 0 -7 -7z" />
    <path d="M2332 2065 l0 -30 5 18 c2 9 2 23 0 30 -3 6 -5 -1 -5 -18z" />
    <path d="M2190 2070 c0 -7 3 -10 7 -7 3 4 3 10 0 14 -4 3 -7 0 -7 -7z" />
    <path d="M1431 2054 l1 -19 5 13 c3 7 2 16 -1 19 -3 4 -6 -2 -5 -13z" />
    <path d="M2280 2020 c0 -7 3 -10 7 -7 3 4 3 10 0 14 -4 3 -7 0 -7 -7z" />
    <path d="M1450 2010 c0 -7 3 -10 7 -7 3 4 3 10 0 14 -4 3 -7 0 -7 -7z" />
    <path d="M1233 1923 c4 -3 10 -3 14 0 3 4 0 7 -7 7 -7 0 -10 -3 -7 -7z" />
    <path d="M2173 1923 c4 -3 10 -3 14 0 3 4 0 7 -7 7 -7 0 -10 -3 -7 -7z" />
    <path d="M1590 1866 c0 -2 7 -7 16 -10 l15 -6 -6 10 c-6 10 -25 14 -25 6z" />
    <path d="M1587 1809 c7 -7 15 -10 18 -7 3 3 -2 9 -12 12 l-18 7 12 -12z" />
    <path d="M1905 1740 c3 -5 8 -10 11 -10 3 0 2 5 -1 10 -3 6 -8 10 -11 10 -3 0
-2 -4 1 -10z" />
    <path d="M1798 1713 c7 -3 16 -2 19 1 4 3 -2 6 -13 5 l-19 -1 13 -5z" />
    <path d="M2093 1643 c4 -3 10 -3 14 0 3 4 0 7 -7 7 -7 0 -10 -3 -7 -7z" />
    <path d="M1353 290 c0 -30 2 -43 4 -27 2 15 2 39 0 55 -2 15 -4 2 -4 -28z" />
    <path d="M1373 295 c0 -27 2 -38 4 -22 2 15 2 37 0 50 -2 12 -4 0 -4 -28z" />
    <path d="M1840 330 c0 -7 3 -10 7 -7 3 4 3 10 0 14 -4 3 -7 0 -7 -7z" />
    <path d="M2243 275 c0 -38 2 -53 4 -32 2 20 2 52 0 70 -2 17 -4 1 -4 -38z" />
    <path d="M1524 318 l-7 -11 11 7 c12 7 16 16 8 16 -3 0 -8 -5 -12 -12z" />
    <path d="M1635 320 c3 -5 8 -10 11 -10 3 0 2 5 -1 10 -3 6 -8 10 -11 10 -3 0
-2 -4 1 -10z" />
    <path d="M1913 265 c0 -33 2 -45 4 -27 2 18 2 45 0 60 -2 15 -4 0 -4 -33z" />
    <path d="M2094 308 l-7 -11 11 7 c7 4 12 9 12 12 0 8 -9 4 -16 -8z" />
    <path d="M1750 260 l-25 -8 28 -1 c15 -1 27 4 27 9 0 6 -1 10 -2 9 -2 -1 -14
-5 -28 -9z" />
    <path d="M1633 243 c4 -3 10 -3 14 0 3 4 0 7 -7 7 -7 0 -10 -3 -7 -7z" />
    <path d="M1716 231 l-6 -9 20 5 c23 6 26 13 6 13 -8 0 -17 -4 -20 -9z" />
    <path d="M1810 210 c0 -7 3 -10 7 -7 3 4 3 10 0 14 -4 3 -7 0 -7 -7z" />
    <path d="M1133 203 c4 -3 10 -3 14 0 3 4 0 7 -7 7 -7 0 -10 -3 -7 -7z" />
  </g>
</svg>