<svg width="296.000000pt" height="173.000000pt" viewBox="0 0 296.000000 173.000000" xmlns="http://www.w3.org/2000/svg">
  <g transform="translate(0.000000,173.000000) scale(0.100000,-0.100000)" fill="#f0f1f4" stroke="none">
    <path d="M0 865 l0 -865 1480 0 1480 0 0 865 0 865 -1480 0 -1480 0 0 -865z
m2685 668 c-130 -215 -268 -544 -281 -668 -6 -62 -6 -65 17 -74 17 -7 19 -10
7 -10 -45 -2 -59 69 -32 171 8 33 13 67 10 75 -3 7 5 31 17 51 13 20 51 95 85
166 62 129 132 252 179 314 37 49 36 38 -2 -25z m-2089 -10 c-8 -16 -34 -62
-59 -104 -91 -154 -156 -309 -129 -309 6 0 -4 -15 -22 -33 -24 -25 -40 -59
-60 -123 -42 -137 -80 -225 -84 -193 -9 79 192 560 311 740 35 54 69 70 43 22z
m478 -270 c-33 -49 -74 -135 -74 -155 0 -21 -47 -108 -58 -108 -36 0 46 184
117 266 28 33 38 30 15 -3z m491 7 c4 -6 -6 -10 -23 -10 -72 0 -191 -117 -192
-189 -1 -22 -2 -23 -11 -9 -21 38 91 189 155 207 43 13 64 13 71 1z m247 -48
c-30 -41 -62 -127 -62 -165 0 -24 -3 -28 -10 -17 -25 38 -11 98 36 160 45 60
76 79 36 22z m-990 -68 c-54 -107 -70 -174 -46 -191 10 -7 13 -13 8 -13 -59 0
-32 151 47 261 36 51 32 26 -9 -57z m1366 59 c-34 -36 -68 -102 -68 -130 0
-13 -6 -23 -14 -23 -11 0 -10 11 6 54 19 50 75 126 94 126 4 0 -4 -12 -18 -27z
m-230 -50 c-47 -104 -68 -172 -68 -220 0 -27 -4 -42 -10 -38 -15 9 -12 74 5
120 8 22 14 53 15 68 0 22 72 137 86 137 1 0 -11 -30 -28 -67z m-759 -37 c-4
-28 -8 -62 -9 -76 0 -22 -2 -23 -11 -7 -7 12 -6 40 2 93 14 83 30 74 18 -10z
m1069 -13 c-17 -38 -39 -93 -48 -123 -21 -64 -25 -34 -7 50 11 50 61 139 79
140 4 0 -7 -30 -24 -67z m-666 12 c-1 -19 3 -37 8 -40 5 -3 3 -17 -5 -33 -7
-15 -21 -56 -31 -92 -18 -68 -78 -198 -99 -215 -7 -5 -26 -31 -44 -57 -17 -26
-36 -50 -43 -54 -6 -4 3 14 21 40 18 26 44 72 58 104 15 31 29 59 33 62 15 11
51 125 48 152 -2 16 2 32 8 36 14 9 34 76 34 116 0 16 3 26 7 23 3 -4 6 -23 5
-42z m-982 -725 c0 -5 -25 -10 -55 -10 -55 0 -55 0 -55 -35 0 -35 0 -35 51
-35 31 0 48 -4 44 -10 -3 -5 -26 -10 -51 -10 -44 0 -44 0 -44 -35 0 -35 0 -35
55 -35 30 0 55 -4 55 -10 0 -6 -28 -10 -65 -10 l-65 0 0 100 0 100 65 0 c37 0
65 -4 65 -10z m195 -4 c66 -28 81 -108 29 -157 -20 -19 -36 -24 -82 -24 l-57
0 -3 84 c-2 46 -1 90 2 98 7 17 68 17 111 -1z m179 -162 c26 -18 56 -18 84 2
19 13 22 24 22 90 0 48 4 74 11 74 8 0 10 -23 7 -70 -6 -109 -68 -154 -133
-97 -22 18 -27 34 -32 84 -3 34 -2 70 3 80 5 12 10 -9 14 -65 4 -67 9 -86 24
-98z m355 155 c18 -11 31 -23 28 -26 -4 -3 -13 2 -22 11 -22 21 -98 21 -119 0
-38 -37 -29 -119 14 -142 27 -14 85 -8 110 11 9 7 5 2 -8 -10 -70 -68 -188 24
-146 113 29 61 85 79 143 43z m261 -87 c18 -45 30 -85 27 -89 -3 -3 -9 6 -13
21 -6 25 -9 26 -70 26 -39 0 -64 -4 -64 -11 0 -6 -7 -17 -15 -25 -8 -9 -15
-11 -15 -6 0 14 31 86 39 92 4 3 13 21 21 40 31 81 41 75 90 -48z m255 98 c4
-6 -8 -10 -29 -10 -36 0 -36 0 -36 -90 0 -53 -4 -90 -10 -90 -6 0 -10 37 -10
90 0 90 0 90 -35 90 -19 0 -35 5 -35 10 0 6 31 10 74 10 41 0 78 -4 81 -10z
m348 -30 c38 -43 36 -83 -7 -126 -46 -46 -86 -46 -132 0 -40 40 -44 80 -13
120 43 54 105 57 152 6z m265 -112 l-3 -52 -27 36 c-24 32 -25 35 -8 31 18 -5
20 0 20 59 0 36 3 68 8 72 8 9 14 -73 10 -146z m-518 47 c0 -57 -4 -95 -10
-95 -6 0 -10 38 -10 95 0 57 4 95 10 95 6 0 10 -38 10 -95z m419 38 c23 -32
29 -43 13 -25 -43 49 -52 42 -52 -38 0 -40 -4 -70 -10 -70 -6 0 -10 38 -10 95
0 52 4 95 9 95 5 0 27 -26 50 -57z" />
    <path d="M720 300 l0 -80 54 0 c65 0 86 21 86 82 0 55 -27 78 -90 78 l-50 0 0
-80z" />
    <path d="M1526 327 c-22 -58 -22 -57 29 -57 50 0 52 3 29 60 -21 51 -37 51
-58 -3z" />
    <path d="M2076 358 c-61 -86 37 -191 118 -127 33 26 38 105 8 132 -29 26 -107
23 -126 -5z" />
  </g>
  <g transform="translate(0.000000,173.000000) scale(0.100000,-0.100000)" fill="#385c8f" stroke="none">
    <path d="M2693 1586 c-45 -50 -127 -190 -198 -339 -36 -72 -75 -150 -89 -172
-15 -24 -21 -44 -16 -50 6 -7 3 -33 -5 -66 -30 -110 -12 -189 41 -189 28 0
134 93 122 106 -4 4 -28 -12 -53 -35 -62 -57 -81 -52 -78 19 2 29 8 70 14 89
47 146 179 433 263 572 25 42 46 81 46 88 0 20 -17 12 -47 -23z" />
    <path d="M575 1553 c-92 -92 -345 -670 -345 -788 0 -87 51 -5 100 160 41 139
38 137 95 49 68 -104 187 -215 278 -258 151 -72 267 -66 370 20 38 32 9 32
-41 0 -171 -110 -415 0 -596 267 l-45 67 42 26 c23 15 65 40 92 57 76 46 176
129 262 215 85 86 162 194 142 201 -7 2 -15 -2 -17 -8 -11 -32 -135 -172 -220
-247 -93 -83 -248 -194 -271 -194 -24 0 37 136 139 312 57 98 69 138 41 138
-5 0 -17 -7 -26 -17z" />
    <path d="M924 1386 c-9 -24 3 -47 21 -40 18 7 16 45 -2 52 -7 2 -16 -3 -19
-12z" />
    <path d="M1049 1266 c-77 -89 -141 -242 -122 -293 12 -30 75 63 87 128 3 20
24 65 46 102 22 36 40 71 40 76 0 19 -30 12 -51 -13z" />
    <path d="M1484 1269 c-39 -11 -115 -91 -147 -156 -26 -49 -26 -49 -3 -78 18
-22 27 -26 47 -20 29 9 109 65 109 77 0 12 -16 10 -29 -5 -15 -18 -90 -52 -97
-44 -21 21 62 144 121 178 17 10 47 18 68 18 39 1 45 9 25 29 -14 14 -49 14
-94 1z" />
    <path d="M1793 1234 c-58 -76 -88 -107 -125 -131 -41 -25 -62 -23 -53 7 6 19
-10 70 -22 70 -11 0 -73 -54 -73 -64 0 -4 12 2 27 14 34 26 39 15 23 -47 -12
-51 -24 -63 -90 -96 -67 -32 -221 -190 -253 -259 -46 -98 -27 -198 39 -198 47
0 130 68 184 150 13 19 29 40 35 45 31 26 95 180 119 287 3 15 23 40 44 55 20
15 44 34 52 42 13 13 15 11 18 -20 4 -58 11 -77 31 -84 22 -7 90 33 91 53 0 9
-9 7 -26 -7 -33 -26 -54 -27 -54 -1 0 26 36 117 61 151 40 57 14 88 -28 33z
m-253 -259 c0 -17 -40 -128 -49 -135 -4 -3 -23 -39 -43 -80 -48 -97 -104 -170
-150 -195 -36 -19 -37 -19 -57 -1 -71 64 48 269 225 389 61 41 74 44 74 22z" />
    <path d="M2200 1241 c-44 -24 -74 -64 -101 -136 -23 -63 -24 -61 11 -70 24 -6
25 -4 25 32 0 43 42 113 88 147 28 21 29 21 43 2 11 -15 14 -16 14 -4 0 13
-30 49 -41 48 -2 -1 -20 -9 -39 -19z" />
    <path d="M826 1217 c-45 -59 -86 -162 -86 -216 0 -77 38 -91 105 -37 38 31 26
45 -13 16 -73 -54 -70 18 7 172 38 75 43 98 21 98 -5 0 -20 -15 -34 -33z" />
    <path d="M1949 1198 c-18 -24 -46 -58 -63 -75 -16 -18 -26 -36 -22 -40 4 -4
11 -1 16 7 15 24 12 -18 -5 -65 -22 -62 -20 -131 6 -149 26 -18 66 -6 99 30
32 33 20 39 -20 9 -48 -35 -60 -32 -60 13 0 44 23 114 69 216 47 105 38 129
-20 54z" />
    <path d="M1134 1204 c-49 -33 -49 -33 -41 -40 3 -4 18 3 33 15 42 33 58 28 50
-16 -19 -108 -19 -128 1 -152 15 -19 25 -23 46 -17 15 3 27 10 27 15 0 5 -9 7
-20 4 -28 -7 -32 12 -21 92 16 111 -8 144 -75 99z" />
    <path d="M2273 1170 c-10 -13 -30 -37 -45 -55 -15 -18 -25 -35 -22 -38 3 -2 0
-31 -7 -64 -21 -99 9 -150 69 -119 34 18 58 44 48 53 -4 4 -10 3 -14 -3 -12
-18 -53 -36 -69 -30 -20 8 -11 49 40 164 29 66 37 96 29 104 -7 7 -16 4 -29
-12z" />
  </g>
  <g transform="translate(0.000000,173.000000) scale(0.100000,-0.100000)" fill="#a2bad7" stroke="none">
    <path d="M908 1532 c4 -11 1 -13 -8 -7 -9 5 -11 4 -6 -3 10 -16 14 -15 25 6 7
14 6 19 -4 19 -7 0 -11 -7 -7 -15z" />
    <path d="M689 1283 l-34 -38 38 34 c20 19 37 36 37 38 0 8 -8 0 -41 -34z" />
    <path d="M1550 1249 l-35 -6 37 -2 c20 0 39 -7 41 -13 3 -8 6 -7 6 4 1 22 -7
25 -49 17z" />
    <path d="M2250 1240 c11 -11 23 -20 27 -20 3 0 -2 9 -12 20 -10 11 -22 20 -27
20 -4 0 1 -9 12 -20z" />
    <path d="M834 1228 c-19 -23 -19 -23 3 -5 12 11 27 16 34 11 8 -4 10 -3 5 4
-10 17 -21 15 -42 -10z" />
    <path d="M1156 1214 c-9 -8 -16 -12 -16 -7 -1 4 -9 -2 -19 -14 -10 -12 -21
-20 -23 -17 -3 2 -19 -11 -37 -31 -17 -20 -36 -33 -41 -30 -6 4 -7 -1 -3 -11
4 -10 2 -15 -3 -11 -5 3 -15 -11 -21 -31 -12 -37 -12 -37 10 -7 65 93 176 173
178 129 0 -12 3 -14 6 -6 3 7 -1 19 -7 27 -15 18 1 20 20 3 12 -11 12 -10 1 5
-17 21 -25 21 -45 1z" />
    <path d="M516 1175 c-11 -8 -14 -15 -8 -15 20 0 26 4 28 18 3 15 3 15 -20 -3z" />
    <path d="M2294 1157 c-1 -30 -1 -30 9 -9 6 14 7 26 1 32 -5 5 -9 -4 -10 -23z" />
    <path d="M1574 1165 c-4 -8 -9 -13 -14 -10 -4 2 -20 -9 -35 -25 -16 -17 -34
-30 -41 -30 -7 0 -19 -9 -27 -20 -8 -11 -16 -18 -19 -15 -2 3 -5 -1 -5 -9 0
-14 79 34 94 57 14 22 51 38 56 24 2 -7 4 0 3 15 -1 32 -4 35 -12 13z" />
    <path d="M406 1144 c-10 -25 -7 -34 10 -34 8 0 12 -5 8 -11 -4 -8 0 -8 15 0
11 7 21 14 21 17 0 3 -4 3 -9 0 -18 -11 -42 6 -36 25 8 23 0 26 -9 3z" />
    <path d="M2682 1124 c-7 -14 -8 -23 -2 -19 15 9 32 45 22 45 -5 0 -14 -12 -20
-26z" />
    <path d="M1867 1102 c-20 -21 -37 -43 -37 -50 0 -7 10 -2 23 11 12 12 21 25
20 30 -2 4 1 7 6 7 5 0 11 -6 14 -12 2 -7 3 -4 1 6 -2 11 2 26 8 33 22 27 1
12 -35 -25z" />
    <path d="M1675 1111 c-10 -17 12 -21 25 -6 10 12 10 15 -3 15 -9 0 -18 -4 -22
-9z" />
    <path d="M924 1073 c-9 -16 -39 -47 -66 -70 -37 -32 -44 -43 -29 -43 10 0 34
18 52 40 18 22 39 40 45 40 6 0 14 14 16 30 6 37 4 37 -18 3z" />
    <path d="M1645 1089 c-4 -5 -13 -8 -21 -5 -8 3 -14 1 -14 -4 0 -6 5 -10 12
-10 6 0 3 -9 -7 -20 -30 -33 -13 -28 23 7 18 17 28 34 23 37 -5 4 -13 1 -16
-5z" />
    <path d="M2164 1064 c-40 -23 -74 -24 -74 -1 0 7 -16 -13 -36 -43 -20 -30 -42
-59 -50 -63 -8 -4 -14 -15 -14 -23 0 -8 -4 -13 -9 -10 -12 8 -33 -19 -23 -29
4 -5 0 -6 -9 -3 -9 4 -16 1 -16 -7 0 -30 72 39 129 124 14 20 26 26 57 27 25
0 48 8 61 19 18 16 23 17 30 5 8 -12 10 -10 10 8 0 27 -4 27 -56 -4z" />
    <path d="M2651 1064 c-17 -37 -8 -39 13 -4 9 17 13 30 8 30 -5 0 -14 -12 -21
-26z" />
    <path d="M1294 1057 c-5 -7 -21 -19 -35 -28 -13 -9 -21 -20 -18 -24 4 -3 22 7
42 24 19 17 38 27 42 23 5 -4 5 -1 1 6 -9 15 -18 15 -32 -1z" />
    <path d="M2373 1024 c-3 -9 -21 -32 -40 -50 -18 -19 -34 -37 -34 -41 -1 -5 -5
-7 -10 -5 -5 1 -9 -6 -9 -15 1 -17 119 102 120 120 0 14 -21 7 -27 -9z" />
    <path d="M1539 1023 c-1 -5 -1 -12 0 -16 1 -5 -3 -6 -8 -3 -14 9 -96 -39 -96
-56 -1 -7 -7 -12 -14 -10 -7 1 -10 -2 -6 -8 5 -8 11 -8 21 1 7 6 11 16 8 21
-3 5 2 8 12 6 11 -2 18 2 17 9 -2 7 4 10 12 7 8 -4 15 -2 15 3 0 13 33 12 43
-1 4 -6 6 4 5 22 -2 30 -6 42 -9 25z" />
    <path d="M2607 981 c-10 -21 -45 -68 -78 -105 -33 -36 -58 -66 -54 -66 4 0 1
-8 -6 -17 -13 -16 -12 -17 3 -4 10 7 16 17 13 21 -5 8 22 34 45 42 13 5 110
149 110 163 0 17 -18 -2 -33 -34z" />
    <path d="M784 955 c20 -15 20 -15 0 -15 -11 0 -26 6 -34 13 -12 10 -12 9 -1
-5 14 -19 38 -23 59 -10 9 6 5 12 -15 20 -26 11 -27 11 -9 -3z" />
    <path d="M1893 925 c0 -22 2 -30 4 -17 2 12 2 30 0 40 -3 9 -5 -1 -4 -23z" />
    <path d="M1383 918 c-4 -7 -8 -17 -8 -23 0 -5 -6 -10 -12 -10 -7 0 -13 -4 -14
-8 -2 -19 9 -15 35 12 16 17 23 31 18 35 -6 4 -14 1 -19 -6z" />
    <path d="M545 860 c33 -33 62 -60 64 -60 3 0 -21 27 -54 60 -33 33 -62 60 -64
60 -3 0 21 -27 54 -60z" />
    <path d="M2226 909 c7 -13 44 -17 44 -6 0 7 -11 12 -24 12 -13 0 -22 -3 -20
-6z" />
    <path d="M1299 833 c-13 -15 -16 -21 -6 -14 9 7 17 10 17 6 0 -4 7 -2 15 5 8
7 15 16 15 21 0 17 -16 9 -41 -18z" />
    <path d="M1380 605 c-24 -25 -42 -45 -39 -45 3 0 25 20 49 45 24 25 42 45 39
45 -3 0 -25 -20 -49 -45z" />
    <path d="M1202 610 c0 -19 2 -27 5 -17 2 9 2 25 0 35 -3 9 -5 1 -5 -18z" />
    <path d="M1215 570 c-3 -5 1 -10 10 -10 9 0 14 -4 10 -9 -3 -5 -1 -12 5 -16
15 -10 12 21 -4 34 -10 8 -16 9 -21 1z" />
    <path d="M480 400 c0 -5 5 -10 10 -10 6 0 10 -37 10 -90 0 -53 -4 -90 -10 -90
-5 0 -10 -4 -10 -10 0 -6 32 -10 75 -10 68 0 75 2 75 20 0 18 -7 20 -55 20
-52 0 -55 1 -55 24 0 23 5 25 47 28 36 2 49 7 51 21 3 14 -4 17 -47 17 -48 0
-51 2 -51 25 0 24 3 25 55 25 48 0 55 2 55 20 0 18 -7 20 -75 20 -43 0 -75 -4
-75 -10z" />
    <path d="M694 397 c-3 -8 -3 -56 -2 -108 l3 -94 67 0 c44 0 71 5 80 14 11 11
9 13 -9 8 -13 -3 -23 -2 -23 3 0 16 -89 16 -94 0 -2 -8 -4 28 -4 80 0 52 2 88
6 80 5 -11 23 -15 67 -15 53 0 60 -2 60 -20 0 -11 6 -19 13 -17 8 1 12 -11 12
-35 0 -24 -3 -33 -9 -25 -6 10 -12 7 -25 -12 -14 -23 -14 -26 -1 -26 8 0 15 6
15 13 0 8 3 7 10 -3 7 -11 11 -9 19 13 34 88 -25 157 -134 157 -29 0 -48 -5
-51 -13z" />
    <path d="M947 403 c-11 -10 -8 -131 3 -138 6 -4 10 18 10 59 0 37 4 66 10 66
6 0 10 5 10 10 0 11 -23 14 -33 3z" />
    <path d="M1095 401 c-3 -6 -1 -11 6 -11 8 0 10 -24 7 -85 -3 -61 -1 -82 6 -75
15 15 14 172 -1 177 -6 2 -14 -1 -18 -6z" />
    <path d="M1237 394 c-22 -12 -27 -20 -22 -37 5 -17 4 -19 -4 -7 -18 26 -35
-38 -22 -82 15 -50 91 -107 91 -68 0 6 7 10 15 10 8 0 15 -4 15 -10 0 -18 28
-11 57 14 15 13 24 28 20 32 -4 5 -12 2 -16 -5 -11 -17 -128 -21 -142 -5 -5 6
-6 14 -3 17 4 3 3 14 0 24 -6 15 -8 15 -16 3 -7 -11 -10 -5 -10 20 0 24 3 31
9 21 7 -11 11 -9 20 8 7 12 10 25 7 30 -3 4 24 8 58 8 47 0 63 -4 59 -13 -6
-16 11 -26 31 -18 23 9 2 41 -40 62 -31 14 -36 14 -44 2 -7 -10 -10 -11 -10
-2 0 16 -18 15 -53 -4z" />
    <path d="M1533 398 c-5 -7 -16 -29 -23 -48 -8 -19 -17 -37 -21 -40 -7 -5 -49
-104 -49 -115 0 -11 32 -4 46 9 18 18 18 26 0 26 -12 0 -12 5 -3 30 14 36 32
40 23 5 -6 -24 -5 -25 49 -25 55 0 55 0 50 28 -5 27 -5 27 9 -3 8 -18 10 -32
5 -36 -16 -9 1 -39 22 -39 24 0 25 -6 -18 102 -39 101 -49 118 -68 118 -7 0
-17 -6 -22 -12z m42 -81 c15 -37 15 -37 -19 -37 -34 0 -34 0 -19 40 18 46 17
46 38 -3z" />
    <path d="M1695 400 c-11 -18 3 -28 45 -32 28 -2 40 0 40 9 0 7 3 13 8 13 4 0
6 -40 4 -90 -2 -49 -8 -90 -13 -90 -5 0 -9 -4 -9 -10 0 -5 9 -10 20 -10 19 0
20 7 20 90 0 90 0 90 36 90 28 0 35 3 32 18 -3 14 -17 17 -90 20 -52 2 -89 -1
-93 -8z" />
    <path d="M1937 403 c-4 -3 -7 -53 -7 -110 0 -96 1 -103 20 -103 11 0 20 5 20
10 0 6 -4 10 -10 10 -6 0 -10 37 -10 90 0 57 4 90 11 90 5 0 7 5 4 10 -7 12
-19 13 -28 3z" />
    <path d="M2094 400 c-44 -17 -79 -82 -51 -94 10 -5 10 -7 0 -12 -17 -8 -16
-26 3 -50 15 -19 15 -18 11 4 -3 12 -1 22 4 22 5 0 9 12 9 28 0 15 8 39 17 52
10 14 16 27 14 28 -1 2 0 6 3 10 3 3 6 0 6 -6 0 -14 54 -15 85 -2 19 7 18 9
-8 19 -33 13 -63 13 -93 1z" />
    <path d="M2317 403 c-4 -3 -7 -53 -7 -110 0 -96 1 -103 20 -103 11 0 20 5 20
10 0 6 -4 10 -10 10 -6 0 -10 37 -10 92 0 82 2 90 14 72 8 -10 18 -16 22 -12
4 5 -1 17 -11 28 -19 21 -28 24 -38 13z" />
    <path d="M2455 398 c-2 -7 -6 -40 -7 -73 -3 -51 -6 -60 -20 -57 -10 2 -18 0
-18 -3 0 -15 54 -75 66 -75 22 0 16 15 -11 30 -28 15 -33 30 -10 30 12 0 15
14 15 70 0 40 4 70 10 70 6 0 10 5 10 10 0 14 -30 12 -35 -2z" />
    <path d="M2180 366 c0 -2 7 -9 15 -16 12 -10 15 -10 15 4 0 9 -7 16 -15 16 -8
0 -15 -2 -15 -4z" />
    <path d="M2223 353 c3 -13 1 -23 -4 -23 -5 0 -9 -15 -9 -34 0 -26 -7 -40 -30
-58 -20 -16 -27 -27 -21 -37 10 -16 52 2 48 22 -1 7 3 11 10 10 17 -4 40 40
24 45 -14 5 -15 32 -1 32 15 0 12 24 -6 46 -15 19 -15 18 -11 -3z" />
    <path d="M2358 352 c-25 -5 -23 -32 1 -27 13 2 18 -1 15 -10 -3 -7 1 -17 8
-21 19 -12 48 -15 48 -5 0 13 -26 32 -34 24 -4 -4 -4 0 -1 8 7 19 -14 37 -37
31z" />
    <path d="M961 253 c-10 -11 -10 -18 -2 -26 8 -8 11 -8 11 1 0 10 3 10 14 0 8
-7 13 -17 13 -22 -3 -14 20 -18 25 -4 3 7 -7 25 -21 39 -23 22 -28 24 -40 12z" />
    <path d="M2073 235 c5 -37 40 -59 50 -31 3 7 -7 23 -24 35 -30 22 -30 22 -26
-4z" />
    <path d="M1063 232 c-27 -20 -16 -49 13 -38 14 6 16 9 5 15 -10 7 -11 9 -1 13
7 2 11 9 9 16 -3 7 -11 6 -26 -6z" />
  </g>
  <g transform="translate(0.000000,173.000000) scale(0.100000,-0.100000)" fill="#0979e4" stroke="none">
    <path d="M1254 396 c-122 -54 -48 -245 77 -198 29 11 59 38 59 53 0 16 -26 10
-45 -11 -25 -28 -76 -26 -103 3 -66 70 25 176 101 117 28 -22 51 -26 45 -8
-13 39 -89 64 -134 44z" />
    <path d="M2120 403 c-68 -21 -99 -73 -81 -135 29 -96 162 -102 201 -9 31 76
-45 168 -120 144z m68 -43 c64 -60 12 -157 -72 -136 -39 10 -63 64 -47 104 21
51 81 67 119 32z" />
    <path d="M480 300 l0 -100 75 0 c43 0 75 4 75 10 0 6 -27 10 -60 10 -60 0 -60
0 -60 35 0 35 0 35 50 35 28 0 50 5 50 10 0 6 -22 10 -50 10 -50 0 -50 0 -50
35 0 35 0 35 60 35 33 0 60 4 60 10 0 6 -32 10 -75 10 l-75 0 0 -100z" />
    <path d="M700 300 l0 -100 65 0 c85 0 115 25 115 95 0 72 -38 105 -119 105
l-61 0 0 -100z m131 54 c19 -17 26 -78 11 -100 -12 -19 -49 -34 -81 -34 -31 0
-31 0 -31 81 0 82 0 82 41 76 22 -3 49 -13 60 -23z" />
    <path d="M950 321 c0 -102 16 -126 85 -126 69 0 85 24 85 126 0 64 -3 79 -15
79 -12 0 -15 -15 -15 -74 0 -82 -13 -106 -55 -106 -42 0 -55 24 -55 106 0 59
-3 74 -15 74 -12 0 -15 -15 -15 -79z" />
    <path d="M1515 353 c-10 -27 -21 -50 -25 -53 -6 -5 -40 -85 -40 -95 0 -14 28
-2 44 20 15 20 28 25 63 25 37 0 45 -4 55 -25 6 -14 17 -25 25 -25 17 0 18 -3
-23 105 -31 81 -40 95 -59 95 -17 0 -26 -10 -40 -47z m75 -70 c0 -8 -14 -13
-35 -13 -40 0 -41 4 -18 62 l17 42 18 -39 c9 -22 18 -46 18 -52z" />
    <path d="M1700 390 c0 -5 16 -10 35 -10 35 0 35 0 35 -90 0 -72 3 -90 15 -90
11 0 15 19 17 88 3 87 3 87 41 90 73 6 35 22 -53 22 -53 0 -90 -4 -90 -10z" />
    <path d="M1940 300 c0 -82 3 -100 15 -100 12 0 15 18 15 100 0 82 -3 100 -15
100 -12 0 -15 -18 -15 -100z" />
    <path d="M2320 300 c0 -82 3 -100 15 -100 12 0 15 15 15 71 l0 71 56 -71 c76
-98 84 -95 84 29 0 82 -3 100 -15 100 -12 0 -15 -15 -15 -72 0 -83 -5 -82 -76
17 -57 79 -64 74 -64 -45z" />
  </g>
</svg>