<svg id="visual" viewBox="0 0 900 450" width="900" height="450" xmlns="http://www.w3.org/2000/svg" xmlns:xlink="http://www.w3.org/1999/xlink" version="1.1"><path d="M0 60L13.7 54C27.3 48 54.7 36 82 33C109.3 30 136.7 36 163.8 41.2C191 46.3 218 50.7 245.2 49.2C272.3 47.7 299.7 40.3 327 35.2C354.3 30 381.7 27 409 27C436.3 27 463.7 30 491 35.2C518.3 40.3 545.7 47.7 573 48.3C600.3 49 627.7 43 654.8 43C682 43 709 49 736.2 49C763.3 49 790.7 43 818 43.8C845.3 44.7 872.7 52.3 886.3 56.2L900 60L900 0L886.3 0C872.7 0 845.3 0 818 0C790.7 0 763.3 0 736.2 0C709 0 682 0 654.8 0C627.7 0 600.3 0 573 0C545.7 0 518.3 0 491 0C463.7 0 436.3 0 409 0C381.7 0 354.3 0 327 0C299.7 0 272.3 0 245.2 0C218 0 191 0 163.8 0C136.7 0 109.3 0 82 0C54.7 0 27.3 0 13.7 0L0 0Z" fill="#03045e"></path><path d="M0 177L13.7 171C27.3 165 54.7 153 82 144C109.3 135 136.7 129 163.8 129.7C191 130.3 218 137.7 245.2 154.2C272.3 170.7 299.7 196.3 327 199.3C354.3 202.3 381.7 182.7 409 172.8C436.3 163 463.7 163 491 157.8C518.3 152.7 545.7 142.3 573 137.2C600.3 132 627.7 132 654.8 131.2C682 130.3 709 128.7 736.2 141.3C763.3 154 790.7 181 818 179.5C845.3 178 872.7 148 886.3 133L900 118L900 58L886.3 54.2C872.7 50.3 845.3 42.7 818 41.8C790.7 41 763.3 47 736.2 47C709 47 682 41 654.8 41C627.7 41 600.3 47 573 46.3C545.7 45.7 518.3 38.3 491 33.2C463.7 28 436.3 25 409 25C381.7 25 354.3 28 327 33.2C299.7 38.3 272.3 45.7 245.2 47.2C218 48.7 191 44.3 163.8 39.2C136.7 34 109.3 28 82 31C54.7 34 27.3 46 13.7 52L0 58Z" fill="#001f73"></path><path d="M0 235L13.7 229.8C27.3 224.7 54.7 214.3 82 207.7C109.3 201 136.7 198 163.8 194.2C191 190.3 218 185.7 245.2 193.8C272.3 202 299.7 223 327 226C354.3 229 381.7 214 409 206.5C436.3 199 463.7 199 491 196.8C518.3 194.7 545.7 190.3 573 188.8C600.3 187.3 627.7 188.7 654.8 183.3C682 178 709 166 736.2 177.3C763.3 188.7 790.7 223.3 818 224.8C845.3 226.3 872.7 194.7 886.3 178.8L900 163L900 116L886.3 131C872.7 146 845.3 176 818 177.5C790.7 179 763.3 152 736.2 139.3C709 126.7 682 128.3 654.8 129.2C627.7 130 600.3 130 573 135.2C545.7 140.3 518.3 150.7 491 155.8C463.7 161 436.3 161 409 170.8C381.7 180.7 354.3 200.3 327 197.3C299.7 194.3 272.3 168.7 245.2 152.2C218 135.7 191 128.3 163.8 127.7C136.7 127 109.3 133 82 142C54.7 151 27.3 163 13.7 169L0 175Z" fill="#003687"></path><path d="M0 321L13.7 315C27.3 309 54.7 297 82 288C109.3 279 136.7 273 163.8 270.7C191 268.3 218 269.7 245.2 275.7C272.3 281.7 299.7 292.3 327 290.2C354.3 288 381.7 273 409 274.5C436.3 276 463.7 294 491 289.5C518.3 285 545.7 258 573 254.2C600.3 250.3 627.7 269.7 654.8 269.7C682 269.7 709 250.3 736.2 254.8C763.3 259.3 790.7 287.7 818 289.8C845.3 292 872.7 268 886.3 256L900 244L900 161L886.3 176.8C872.7 192.7 845.3 224.3 818 222.8C790.7 221.3 763.3 186.7 736.2 175.3C709 164 682 176 654.8 181.3C627.7 186.7 600.3 185.3 573 186.8C545.7 188.3 518.3 192.7 491 194.8C463.7 197 436.3 197 409 204.5C381.7 212 354.3 227 327 224C299.7 221 272.3 200 245.2 191.8C218 183.7 191 188.3 163.8 192.2C136.7 196 109.3 199 82 205.7C54.7 212.3 27.3 222.7 13.7 227.8L0 233Z" fill="#004c99"></path><path d="M0 397L13.7 391C27.3 385 54.7 373 82 360.3C109.3 347.7 136.7 334.3 163.8 333.7C191 333 218 345 245.2 353.2C272.3 361.3 299.7 365.7 327 362.7C354.3 359.7 381.7 349.3 409 345.7C436.3 342 463.7 345 491 332.2C518.3 319.3 545.7 290.7 573 289.2C600.3 287.7 627.7 313.3 654.8 314.8C682 316.3 709 293.7 736.2 296.7C763.3 299.7 790.7 328.3 818 336.7C845.3 345 872.7 333 886.3 327L900 321L900 242L886.3 254C872.7 266 845.3 290 818 287.8C790.7 285.7 763.3 257.3 736.2 252.8C709 248.3 682 267.7 654.8 267.7C627.7 267.7 600.3 248.3 573 252.2C545.7 256 518.3 283 491 287.5C463.7 292 436.3 274 409 272.5C381.7 271 354.3 286 327 288.2C299.7 290.3 272.3 279.7 245.2 273.7C218 267.7 191 266.3 163.8 268.7C136.7 271 109.3 277 82 286C54.7 295 27.3 307 13.7 313L0 319Z" fill="#0062a8"></path><path d="M0 451L13.7 451C27.3 451 54.7 451 82 451C109.3 451 136.7 451 163.8 451C191 451 218 451 245.2 451C272.3 451 299.7 451 327 451C354.3 451 381.7 451 409 451C436.3 451 463.7 451 491 451C518.3 451 545.7 451 573 451C600.3 451 627.7 451 654.8 451C682 451 709 451 736.2 451C763.3 451 790.7 451 818 451C845.3 451 872.7 451 886.3 451L900 451L900 319L886.3 325C872.7 331 845.3 343 818 334.7C790.7 326.3 763.3 297.7 736.2 294.7C709 291.7 682 314.3 654.8 312.8C627.7 311.3 600.3 285.7 573 287.2C545.7 288.7 518.3 317.3 491 330.2C463.7 343 436.3 340 409 343.7C381.7 347.3 354.3 357.7 327 360.7C299.7 363.7 272.3 359.3 245.2 351.2C218 343 191 331 163.8 331.7C136.7 332.3 109.3 345.7 82 358.3C54.7 371 27.3 383 13.7 389L0 395Z" fill="#0077b6"></path></svg>